<?xml version="1.0" encoding="UTF-8" standalone="no"?>
<!-- Created with Inkscape (http://www.inkscape.org/) -->

<svg
   xmlns:dc="http://purl.org/dc/elements/1.1/"
   xmlns:cc="http://creativecommons.org/ns#"
   xmlns:rdf="http://www.w3.org/1999/02/22-rdf-syntax-ns#"
   xmlns:svg="http://www.w3.org/2000/svg"
   xmlns="http://www.w3.org/2000/svg"
   xmlns:sodipodi="http://sodipodi.sourceforge.net/DTD/sodipodi-0.dtd"
   xmlns:inkscape="http://www.inkscape.org/namespaces/inkscape"
   id="svg3063"
   version="1.1"
   inkscape:version="0.48.4 r9939"
   width="400"
   height="266"
   sodipodi:docname="ball-gag-15164229.jpg">
  <metadata
     id="metadata3069">
    <rdf:RDF>
      <cc:Work
         rdf:about="">
        <dc:format>image/svg+xml</dc:format>
        <dc:type
           rdf:resource="http://purl.org/dc/dcmitype/StillImage" />
        <dc:title></dc:title>
      </cc:Work>
    </rdf:RDF>
  </metadata>
  <defs
     id="defs3067" />
  <sodipodi:namedview
     pagecolor="#ffffff"
     bordercolor="#666666"
     borderopacity="1"
     objecttolerance="10"
     gridtolerance="10"
     guidetolerance="10"
     inkscape:pageopacity="0"
     inkscape:pageshadow="2"
     inkscape:window-width="640"
     inkscape:window-height="480"
     id="namedview3065"
     showgrid="false"
     inkscape:zoom="0.88721805"
     inkscape:cx="200"
     inkscape:cy="133"
     inkscape:window-x="309"
     inkscape:window-y="292"
     inkscape:window-maximized="0"
     inkscape:current-layer="svg3063" />
  <g
     id="g3073"
     transform="translate(25.923729,12.398305)">
    <path
       style="fill:#bababa"
       d="m 167.38256,169.27951 c -1.26713,-0.26597 -2.67983,-1.46161 -3.13932,-2.65697 -0.53607,-1.39457 -2.39806,-2.64628 -5.19612,-3.49303 -2.39837,-0.72581 -5.80689,-2.71079 -7.57448,-4.41109 l -3.21381,-3.09144 -3.78619,2.56104 c -2.08241,1.40858 -4.9112,2.89168 -6.2862,3.29579 -1.375,0.40411 -3.38763,1.34912 -4.47251,2.10004 -1.44046,0.99704 -5.80288,1.3653 -16.17327,1.3653 -13.62632,0 -14.31901,-0.0995 -17.12383,-2.45959 -2.14335,-1.80352 -3.39557,-4.2709 -4.69446,-9.25 -2.9365,-11.25664 -2.99027,-12.26734 -0.7787,-14.63564 10.48031,-11.22297 11.00356,-11.65477 14.12304,-11.65477 2.71341,0 5.29337,-2.12038 18.85948,-15.5 10.8619,-10.71257 15.10515,-15.49357 13.73815,-15.47919 -3.43649,0.0362 -28.7334,3.91155 -31.9235,4.89056 -3.8242,1.17362 -15.32872,2.65549 -36.5544,4.7085 -17.835773,1.72513 -47.964859,1.26635 -53.297158,-0.81157 -3.618102,-1.40992 -5.702842,-5.54226 -5.702842,-11.30409 0,-5.50693 2.696779,-8.76716 8.622275,-10.42378 10.400407,-2.90769 34.300231,-7.08338 46.377725,-8.10295 13.66442,-1.15354 18.97399,-1.981806 53.94523,-8.41516 10.69487,-1.967443 26.44487,-4.483671 35,-5.591618 18.08824,-2.342551 18.05477,-2.333717 18.05477,-4.765003 0,-1.021389 1.16776,-2.948012 2.59501,-4.281385 1.42726,-1.333373 3.23488,-3.654197 4.01693,-5.157387 1.36637,-2.626308 5.77383,-5.677054 9.80984,-6.790154 1.28338,-0.353948 2.27994,-2.013054 3,-4.9945 0.68612,-2.840973 1.69577,-4.581673 2.77643,-4.786731 1.41007,-0.267567 1.74941,0.645454 2,5.381222 l 0.30179,5.703462 5.5,1.431315 c 3.025,0.787223 7.29399,1.511672 9.48663,1.609887 2.9559,0.132402 4.07608,0.643454 4.33258,1.976611 0.40344,2.096895 -1.39542,4.545312 -4.28449,5.831582 -3.16975,1.411233 13.89728,0.285324 30.96528,-2.042774 25.5061,-3.479066 46.48392,-2.425921 50.60573,2.540546 0.73995,0.891595 2.31891,5.502675 3.5088,10.246844 1.18988,4.74417 3.0948,11.149173 4.23316,14.233333 2.55762,6.92934 1.76726,10.54957 -3.61536,16.56025 -5.59754,6.25067 -21.33327,19.66455 -29.65876,25.28254 -4.0471,2.73095 -8.32918,6.53618 -9.51573,8.45605 -2.52807,4.0905 -10.58496,11.0831 -14.47335,12.56147 -4.06268,1.54463 -11.1324,1.28178 -12.58449,-0.46788 -0.68469,-0.825 -1.78635,-1.5 -2.44813,-1.5 -0.66178,0 -2.28071,-1.14692 -3.59762,-2.5487 -2.19513,-2.3366 -2.85459,-2.49314 -7.92432,-1.88103 -3.04146,0.36722 -8.90493,0.74544 -13.02993,0.8405 l -7.5,0.17283 -2.64608,5.38923 c -2.12611,4.33022 -2.44112,5.83907 -1.60306,7.6784 0.9058,1.98802 0.45048,2.98372 -3.46126,7.56897 -2.47735,2.90389 -4.79813,6.21142 -5.15728,7.35007 -1.157,3.66813 -14.35986,8.03549 -20.4362,6.76009 z m -34.664,-14.77933 c 1.90733,-0.79694 3.46788,-1.88967 3.46788,-2.42829 0,-0.53862 -2.39395,-1.51505 -5.31988,-2.16985 -4.55971,-1.02041 -5.7743,-0.95555 -8.5,0.45397 -3.5961,1.85961 -3.96844,3.03461 -1.43012,4.51304 2.52375,1.46995 7.77465,1.30555 11.78212,-0.36887 z m 116.8321,-19.92985 c 4.61604,-1.92871 7.93146,-6.39279 7.25602,-9.76996 -0.47352,-2.3676 -6.23123,-13.14486 -12.86161,-24.07432 -3.52395,-5.80885 -7.89817,-4.70833 -13.82928,3.47933 -3.46742,4.78663 -3.55489,5.34693 -0.94139,6.03037 2.6558,0.69451 3.88504,4.28509 4.77278,13.94111 0.72426,7.87783 0.80997,8.07886 4.22366,9.90665 4.15197,2.22307 6.93902,2.3423 11.37982,0.48682 z M 215.0211,122.8247 c -0.18406,-1.29531 -1.12216,-2.50521 -2.08466,-2.68866 -1.35084,-0.25746 -1.75,0.34845 -1.75,2.65645 0,2.96798 1.7337,4.6041 3.33466,3.147 0.45907,-0.41782 0.68407,-1.81947 0.5,-3.11479 z m 3.93137,-11.23095 c 0.5366,-0.33164 1.24015,-1.92548 1.56342,-3.54186 1.42781,-7.13905 11.74305,-13.6613 23.06509,-14.58389 2.64415,-0.21546 5.54957,-1.03289 6.4565,-1.81651 0.90693,-0.78362 3.89896,-2.69988 6.64896,-4.25836 5.69834,-3.22936 11.71925,-7.55807 11.21461,-8.0627 -0.57228,-0.57228 -30.40819,3.49533 -44.71461,6.09607 -7.425,1.34977 -16.65,2.95532 -20.5,3.56788 -6.81972,1.08506 -19.64175,6.45093 -20.20311,8.45477 -0.15408,0.55 1.48953,2.01065 3.65246,3.24589 2.16294,1.23524 5.87167,4.51487 8.24163,7.28807 l 4.30902,5.04217 9.64519,-0.41427 c 5.30485,-0.22785 10.08423,-0.68561 10.62084,-1.01726 z m 54.85968,-11.11161 c 1.06171,-2.76677 -0.12583,-3.34771 -1.92239,-0.94043 -1.56764,2.10052 -1.59551,2.40744 -0.21862,2.40744 0.86794,0 1.83139,-0.66015 2.14101,-1.46701 z m -52.62571,41.50219 c 0,-2.38953 8.1691,-4.18862 9.46899,-2.08535 0.32287,0.5224 -0.29599,1.4224 -1.37524,2 -2.46107,1.31712 -8.09375,1.37652 -8.09375,0.0854 z"
       id="path3087"
       inkscape:connector-curvature="0" />
    <path
       style="fill:#a0a0a0"
       d="m 99.97647,160.19915 c -1.49257,-1.71847 -5.79003,-14.69313 -5.79003,-17.48092 0,-1.6233 4.0931,-5.76908 5.69576,-5.76908 0.58678,0 2.21987,-1.51167 3.6291,-3.35927 1.40924,-1.8476 4.20663,-4.13959 6.21644,-5.0933 2.00981,-0.95372 10.92271,-8.88341 19.80645,-17.62153 13.58047,-13.35788 15.7542,-15.89034 13.65225,-15.90527 -1.375,-0.01 -13.3,1.78242 -26.5,3.98265 -33.87185,5.6459 -49.75403,7.20599 -71.973223,7.06985 -20.519243,-0.12573 -25.753658,-0.94255 -27.955474,-4.36239 -3.614306,-5.61372 -2.775313,-13.22051 1.787936,-16.21047 3.965376,-2.59821 32.784643,-8.25262 51.140761,-10.03394 18.73143,-1.81774 23.90404,-2.597502 52.5,-7.914307 10.725,-1.994083 26.925,-4.553332 36,-5.68722 16.50457,-2.062186 20,-3.222278 20,-6.637776 0,-0.804648 1.2375,-2.920671 2.75,-4.702273 1.5125,-1.781602 3.5331,-4.203509 4.49021,-5.382015 0.95712,-1.178506 2.41962,-2.142739 3.25,-2.142739 0.83039,0 1.50979,-0.45 1.50979,-1 0,-0.55 1.03993,-1 2.31095,-1 1.93561,0 2.51908,-0.812086 3.59241,-5 1.48624,-5.798979 3.09664,-6.570863 3.09664,-1.484251 0,6.333655 2.16604,11.346484 5.38817,12.469722 3.53626,1.23275 7.32533,1.317042 7.7785,0.173043 0.18333,-0.462817 1.79583,-1.126567 3.58333,-1.475 2.78346,-0.542573 3.25,-0.350004 3.25,1.341486 0,1.527778 -0.67932,1.975 -3,1.975 -2.57684,0 -3,0.372914 -3,2.643776 l 0,2.643776 7.86137,-0.655614 c 4.32376,-0.360587 14.33626,-1.601808 22.25,-2.758269 19.32727,-2.824355 41.53691,-3.088249 48.05986,-0.571044 6.04025,2.330931 6.7145,3.249978 8.41621,11.471898 0.78207,3.778597 2.54483,9.735444 3.91725,13.237437 3.1812,8.11744 3.1351,9.73445 -0.42878,15.04094 -3.28203,4.88683 -22.27184,21.83907 -30.91976,27.60214 -3.11088,2.07312 -7.11191,5.10558 -8.89117,6.73879 -1.77926,1.6332 -3.42289,2.77522 -3.65252,2.53782 -1.49907,-1.54987 -16.61246,-29.21892 -16.61246,-30.4135 0,-0.81402 1.21205,-1.78425 2.69344,-2.15606 1.4814,-0.3718 4.5189,-1.90328 6.75,-3.40327 2.23111,-1.5 7.43156,-4.91687 11.55656,-7.59304 6.55013,-4.24953 7.18338,-4.91045 5,-5.21852 -1.375,-0.19401 -4.75,0.1177 -7.5,0.69269 -2.75,0.57498 -7.475,1.32578 -10.5,1.66843 -3.025,0.34265 -12.475,1.71523 -21,3.05019 -8.525,1.33495 -20.08053,2.84268 -25.67895,3.35052 -8.00378,0.72601 -11.10894,1.46834 -14.53096,3.47378 -5.70369,3.34258 -10.29009,8.21878 -10.29009,10.94027 0,1.94036 -0.53364,2.17686 -4.91194,2.17686 -3.32078,0 -5.06475,0.45384 -5.38367,1.40101 -0.38501,1.14344 0.60994,1.27973 5.41194,0.74133 3.23602,-0.36282 7.3879,-0.93798 9.2264,-1.27812 3.07659,-0.5692 3.76374,-0.17323 8.63039,4.97317 5.09219,5.38491 5.41197,5.55596 8.65066,4.62711 1.84966,-0.53048 6.51599,-0.97139 10.36962,-0.97981 8.01777,-0.0175 8.64112,-0.30037 10.43469,-4.73469 1.60425,-3.96623 3.25275,-4.25445 2.85976,-0.5 -0.24639,2.35392 0.11602,2.79633 2.51623,3.07164 1.74392,0.20004 3.14584,1.14523 3.70801,2.5 1.37423,3.31171 2.85555,14.91991 2.28488,17.90517 -0.45702,2.39078 -0.75589,2.54921 -3.1161,1.65186 -1.76923,-0.67266 -5.51073,-0.61562 -11.60913,0.17699 -4.94919,0.64325 -11.33514,0.89492 -14.19099,0.55927 l -5.19246,-0.61027 -2.96215,5.24864 c -3.43601,6.08827 -10.16307,12.62012 -16.37673,15.90151 -5.03426,2.65856 -16.57946,3.16425 -20.84941,0.91321 -3.89019,-2.05083 -7,-5.24208 -7,-7.18332 0,-4.26094 -5.12911,-2.31815 -6.59275,2.49718 -1.04093,3.42463 -3.44746,5.53504 -7.09117,6.2186 -4.60907,0.86467 -5.10647,-0.0146 -1.68146,-2.97244 l 2.86538,-2.47452 -2.93048,-1.12063 c -6.33814,-2.42373 -11.12855,-2.4087 -15.50078,0.0486 -4.51513,2.53765 -4.97752,4.79367 -1.3129,6.40561 1.23429,0.54292 2.24416,1.33042 2.24416,1.75 0,1.04192 -2.38236,0.96418 -3.55,-0.11584 -0.5225,-0.48329 -2.6375,-1.17868 -4.7,-1.54531 -3.21938,-0.57228 -3.75,-0.4055 -3.75,1.17871 0,1.01492 -0.54,2.38531 -1.2,3.04531 -1.789,1.789 -7.26899,1.45448 -9.00997,-0.55 z m 18.20997,-21.90499 c 0,-1.28975 -0.3876,-2.34501 -0.86133,-2.34501 -0.47373,0 -0.64734,1.1194 -0.3858,2.48756 0.32175,1.68312 -0.0465,2.68788 -1.13867,3.10699 -0.88781,0.34069 -1.6142,1.09103 -1.6142,1.66743 0,0.5764 0.9,0.23351 2,-0.76198 1.1,-0.99549 2,-2.86523 2,-4.15499 z m -7.47354,-6.15188 c -0.30789,-0.30789 -1.11479,-6.4e-4 -1.79313,0.68278 -0.98026,0.98762 -0.8654,1.10248 0.5598,0.5598 0.98622,-0.37553 1.54122,-0.93469 1.23333,-1.24258 z m 105.3003,-7.99817 c 0.39212,-2.76604 -1.40433,-5.19496 -3.84222,-5.19496 -2.32786,0 -3.16618,2.39206 -1.95488,5.57802 1.2634,3.323 5.30963,3.05563 5.7971,-0.38306 z m 58.12756,-22.63992 c 0.65956,-0.79472 1.05216,-2.48222 0.87244,-3.75 -0.46749,-3.29781 -5.1882,-3.28305 -5.65584,0.0177 -0.66814,4.71587 2.14526,6.91107 4.7834,3.73231 z M 171.18644,99.94915 c 0,-0.55 -0.9,-1 -2,-1 -1.1,0 -2,0.45 -2,1 0,0.55 0.9,1 2,1 1.1,0 2,-0.45 2,-1 z m 93,-36 c 0,-0.55 -0.47656,-1 -1.05902,-1 -0.58246,0 -0.7809,0.45 -0.44098,1 0.33992,0.55 0.81648,1 1.05902,1 0.24254,0 0.44098,-0.45 0.44098,-1 z m -61.25,-19.662281 c 0.6875,-0.277412 1.8125,-0.277412 2.5,0 0.6875,0.277413 0.125,0.504386 -1.25,0.504386 -1.375,0 -1.9375,-0.226973 -1.25,-0.504386 z"
       id="path3085"
       inkscape:connector-curvature="0" />
    <path
       style="fill:#909090"
       d="m 101.75595,159.98437 c -2.05335,-0.7318 -5.72029,-10.9239 -5.94789,-16.5319 -0.10583,-2.60753 0.46276,-3.27957 4.37838,-5.17502 2.475,-1.19808 5.625,-2.4403 7,-2.76049 1.375,-0.32019 3.4,-1.28175 4.5,-2.13681 1.97633,-1.53626 1.97703,-1.57168 0.0589,-2.99283 -1.07793,-0.79861 -1.38009,-1.43817 -0.67948,-1.43817 0.69392,0 7.64242,-6.25654 15.44112,-13.90343 7.79871,-7.64688 15.64196,-15.11188 17.42946,-16.58889 4.11813,-3.4028 4.36309,-5.89841 0.5,-5.09386 -7.8867,1.64252 -52.6038,8.68057 -64.75,10.19103 -15.929217,1.98091 -52.646958,2.15627 -58.346775,0.27865 -2.342105,-0.77153 -3.768009,-2.11064 -4.75,-4.46087 -2.666513,-6.38187 -1.45997,-11.3136 3.376419,-13.80108 4.736872,-2.43629 31.372539,-7.5057 47.846436,-9.10632 20.09832,-1.95279 27.18617,-2.94927 46.37392,-6.519699 21.56436,-4.012671 38.6713,-6.721192 51,-8.074766 5.775,-0.634041 11.09538,-1.632979 11.82306,-2.219863 0.72768,-0.586883 3.36037,-0.961601 5.85043,-0.832706 5.58177,0.288935 5.57233,-1.880291 -0.0139,-3.201411 l -3.68666,-0.871876 2.76355,-3.326405 c 1.51996,-1.829523 3.46135,-4.32222 4.31421,-5.539327 1.31033,-1.869962 1.88132,-2.035953 3.68426,-1.071049 1.17344,0.62803 3.06315,1.141872 4.19931,1.141872 1.71769,0 2.06832,-0.631828 2.08105,-3.75 0.0272,-6.658796 1.59392,-6.967832 3.1432,-0.619995 l 1.42119,5.823012 5.46015,1.648406 c 4.07069,1.22893 5.46466,2.125565 5.47789,3.523491 0.0157,1.664681 0.80123,1.861194 7,1.751283 3.84024,-0.06809 14.18226,-1.166942 22.98226,-2.441891 20.40418,-2.956168 44.98813,-3.275005 50.68162,-0.657308 4.5736,2.102806 4.58375,2.119982 6.84118,11.571478 1.02054,4.272841 2.82219,10.217414 4.00366,13.210164 2.61031,6.61209 2.15415,10.69453 -1.71602,15.35757 -4.41194,5.31578 -22.41799,20.8369 -30.08914,25.93667 -3.82764,2.54461 -7.52339,5.30619 -8.21277,6.13685 -0.68938,0.83065 -1.82921,1.51027 -2.53295,1.51027 -1.2363,0 -16.47558,-25.91011 -16.47558,-28.01209 0,-0.57058 1.0125,-1.42519 2.25,-1.89914 5.57889,-2.13665 28.0018,-16.87234 27.32949,-17.96015 -0.50977,-0.82482 -0.55078,-0.82006 -36.07949,4.1846 -13.75,1.93686 -29.10888,3.97224 -34.13085,4.52306 -10.50556,1.15228 -15.74023,3.4211 -21.53636,9.3343 -3.08069,3.14292 -3.68417,4.30357 -2.79485,5.37514 1.9233,2.31743 0.0211,3.61751 -4.79385,3.27646 -3.22705,-0.22857 -4.68852,0.0849 -5.03004,1.07883 -0.39308,1.144 0.59795,1.27999 5.40228,0.74133 3.23602,-0.36282 7.3879,-0.93798 9.2264,-1.27812 3.08907,-0.57151 3.7657,-0.17244 8.91624,5.25867 3.06542,3.23241 6.06119,5.7093 6.65726,5.5042 0.59607,-0.2051 5.58377,-0.76664 11.08377,-1.24786 5.5,-0.48123 11.82509,-1.13985 14.05576,-1.4636 2.78264,-0.40387 4.39196,-0.16912 5.12681,0.74786 1.18224,1.47524 3.29586,14.68491 2.63117,16.4442 -0.53845,1.42517 -13.38404,2.88764 -24.38447,2.77617 l -8.57072,-0.0868 -2.77912,5.30805 c -3.19794,6.10799 -10.32978,13.1717 -16.68739,16.52801 -3.41557,1.80314 -5.94833,2.30992 -11.39204,2.27943 -8.15992,-0.0457 -13.06391,-2.13034 -14.60957,-6.2104 -1.00631,-2.65635 -4.68015,-7.20215 -5.82063,-7.20215 -0.61878,0 -2.45975,4.02155 -3.54825,7.75106 -0.66226,2.26909 -4.21953,4.88429 -5.24665,3.85718 -0.30459,-0.30459 0.66492,-2.15162 2.15445,-4.1045 1.48954,-1.95289 2.52873,-4.32764 2.3093,-5.27722 -0.31621,-1.36847 -0.67484,-1.15622 -1.72932,1.02348 -1.5207,3.14344 -3.14575,3.35897 -9.3765,1.24358 -4.12509,-1.40051 -4.76155,-1.36733 -9.0523,0.4719 -2.53839,1.08808 -5.7401,3.10319 -7.11493,4.47801 -2.00409,2.00409 -3.12235,2.37516 -5.64021,1.87159 -2.83408,-0.56682 -3.08642,-0.42127 -2.58618,1.49164 0.81593,3.12016 -2.99691,5.53745 -6.6697,4.2285 z m 15.43049,-17.03522 c 2.52494,-2.52494 2.58982,-6.61397 0.12587,-7.93264 -1.46226,-0.78257 -2.28639,-0.53327 -3.75,1.13438 -1.66537,1.89755 -1.68309,2.06716 -0.1579,1.5115 0.94489,-0.34424 1.99613,-0.17583 2.33609,0.37424 0.87441,1.41482 -1.60533,4.10682 -3.21427,3.48941 -0.73689,-0.28276 -1.33979,0.0718 -1.33979,0.78783 0,3.17557 3.12847,3.50681 6,0.63528 z m 99.39787,-17.25863 c 0.83585,-1.33373 0.73165,-2.42096 -0.43129,-4.5 -2.08342,-3.72464 -5.59741,-4.14571 -7.09876,-0.85062 -2.42343,5.31887 4.47708,10.22215 7.53005,5.35062 z m -77.93751,-3.08873 c 1.25173,-0.91529 1.47999,-1.57147 0.7118,-2.04624 -1.45227,-0.89755 -5.41624,1.18966 -4.64115,2.44377 0.79799,1.29117 1.7519,1.19467 3.92935,-0.39753 z m 136.06704,-20.68292 c 3.74764,-4.14109 -1.81109,-10.46895 -6.08244,-6.92404 -1.87345,1.55482 -1.83361,3.95443 0.11174,6.73181 1.93278,2.75943 3.59888,2.81307 5.9707,0.19223 z m -103.5274,-1.8964 c 0,-0.50967 0.7875,-1.15106 1.75,-1.4253 0.9625,-0.27425 0.20966,-0.41974 -1.67299,-0.32333 -3.68191,0.18857 -5.68999,2.67531 -2.16034,2.67531 1.14583,0 2.08333,-0.417 2.08333,-0.92668 z M 90.93691,88.19915 c 0.24412,-0.73318 -0.44516,-1.25 -1.66714,-1.25 -1.22833,0 -2.08333,0.64569 -2.08333,1.57332 0,1.83788 3.12044,1.56887 3.75047,-0.32332 z m 21.24953,-3.25 c 0,-0.55 -0.42344,-1 -0.94098,-1 -0.51754,0 -1.2191,0.45 -1.55902,1 -0.33992,0.55 0.0835,1 0.94098,1 0.85746,0 1.55902,-0.45 1.55902,-1 z m 23,-4 c 0,-0.55 -0.675,-1 -1.5,-1 -0.825,0 -1.5,0.45 -1.5,1 0,0.55 0.675,1 1.5,1 0.825,0 1.5,-0.45 1.5,-1 z m 22.82332,-2.66713 c -0.48655,-2.50877 -2.82332,-2.85325 -2.82332,-0.4162 0,1.22833 0.64569,2.08333 1.57332,2.08333 0.93124,0 1.44138,-0.68037 1.25,-1.66713 z m 61.67668,-9.33287 c -0.48382,-0.782843 -1.05907,-0.840931 -1.72574,-0.174265 -0.55,0.55 -0.67341,1.528419 -0.27426,2.174265 0.48382,0.782843 1.05907,0.840931 1.72574,0.174265 0.55,-0.55 0.67341,-1.528419 0.27426,-2.174265 z m 21.30963,-1.75 c -0.40593,-2.107843 -2.18068,-1.974934 -2.63295,0.197179 -0.18865,0.905984 0.36259,1.552821 1.32332,1.552821 1.02996,0 1.52043,-0.655397 1.30963,-1.75 z m 24.19037,-3.809017 c 0,-1.469972 -2.13489,-1.972761 -3.32466,-0.782992 -0.90433,0.904331 1.33682,3.45253 2.43797,2.771982 0.48768,-0.301404 0.88669,-1.196449 0.88669,-1.98899 z"
       id="path3083"
       inkscape:connector-curvature="0" />
    <path
       style="fill:#747474"
       d="m 101.75595,159.98437 c -2.05335,-0.7318 -5.72029,-10.9239 -5.94789,-16.5319 -0.10583,-2.60753 0.46276,-3.27957 4.37838,-5.17502 2.475,-1.19808 5.625,-2.4403 7,-2.76049 1.375,-0.32019 3.4,-1.28175 4.5,-2.13681 1.97633,-1.53626 1.97703,-1.57168 0.0589,-2.99283 -1.07793,-0.79861 -1.38009,-1.43817 -0.67948,-1.43817 0.69392,0 7.64242,-6.25654 15.44112,-13.90343 7.79871,-7.64688 15.64196,-15.11188 17.42946,-16.58889 4.11813,-3.4028 4.36309,-5.89841 0.5,-5.09386 -7.8867,1.64252 -52.6038,8.68057 -64.75,10.19103 -15.929217,1.98091 -52.646958,2.15627 -58.346775,0.27865 -2.342105,-0.77153 -3.768009,-2.11064 -4.75,-4.46087 -2.666513,-6.38187 -1.45997,-11.3136 3.376419,-13.80108 4.736872,-2.43629 31.372539,-7.5057 47.846436,-9.10632 20.09832,-1.95279 27.18617,-2.94927 46.37392,-6.519699 21.56436,-4.012671 38.6713,-6.721192 51,-8.074766 5.775,-0.634041 11.09538,-1.632979 11.82306,-2.219863 0.72768,-0.586883 3.36037,-0.961601 5.85043,-0.832706 5.58177,0.288935 5.57233,-1.880291 -0.0139,-3.201411 l -3.68666,-0.871876 2.76355,-3.326405 c 1.51996,-1.829523 3.46135,-4.32222 4.31421,-5.539327 1.31033,-1.869962 1.88132,-2.035953 3.68426,-1.071049 1.17344,0.62803 3.06315,1.141872 4.19931,1.141872 1.71769,0 2.06832,-0.631828 2.08105,-3.75 0.0272,-6.658796 1.59392,-6.967832 3.1432,-0.619995 l 1.42119,5.823012 5.46015,1.648406 c 4.07069,1.22893 5.46466,2.125565 5.47789,3.523491 0.0157,1.664681 0.80123,1.861194 7,1.751283 3.84024,-0.06809 14.18226,-1.166942 22.98226,-2.441891 20.40418,-2.956168 44.98813,-3.275005 50.68162,-0.657308 4.5736,2.102806 4.58375,2.119982 6.84118,11.571478 1.02054,4.272841 2.82219,10.217414 4.00366,13.210164 2.61031,6.61209 2.15415,10.69453 -1.71602,15.35757 -4.41194,5.31578 -22.41799,20.8369 -30.08914,25.93667 -3.82764,2.54461 -7.52339,5.30619 -8.21277,6.13685 -0.68938,0.83065 -1.82921,1.51027 -2.53295,1.51027 -1.2363,0 -16.47558,-25.91011 -16.47558,-28.01209 0,-0.57058 1.0125,-1.42519 2.25,-1.89914 5.57889,-2.13665 28.0018,-16.87234 27.32949,-17.96015 -0.50977,-0.82482 -0.55078,-0.82006 -36.07949,4.1846 -13.75,1.93686 -29.10888,3.97224 -34.13085,4.52306 -10.41843,1.14273 -16.16659,3.60044 -21.15383,9.04464 -3.08898,3.372 -3.65501,3.58664 -9.5,3.60236 -10.10345,0.0272 -20.52853,6.18403 -25.21911,14.89391 -1.88649,3.50299 -1.88457,3.55138 0.29062,7.32455 5.76565,10.0013 7.35239,14.46014 6.26048,17.59238 -0.84581,2.42631 -0.70272,3.61911 0.73301,6.11036 1.88741,3.27496 10.22384,8.37739 13.91066,8.51421 3.24329,0.12036 3.785,1.92374 0.8027,2.67225 -5.60348,1.40639 -15.49368,-1.80909 -15.49368,-5.03727 0,-1.47541 -4.70315,-7.55367 -5.84478,-7.55367 -0.69193,0 -2.49231,3.84044 -3.63367,7.75106 -0.66226,2.26909 -4.21953,4.88429 -5.24665,3.85718 -0.30459,-0.30459 0.66492,-2.15162 2.15445,-4.1045 1.48954,-1.95289 2.52873,-4.32764 2.3093,-5.27722 -0.31621,-1.36847 -0.67484,-1.15622 -1.72932,1.02348 -1.5207,3.14344 -3.14575,3.35897 -9.3765,1.24358 -4.12509,-1.40051 -4.76155,-1.36733 -9.0523,0.4719 -2.53839,1.08808 -5.7401,3.10319 -7.11493,4.47801 -2.00409,2.00409 -3.12235,2.37516 -5.64021,1.87159 -2.83408,-0.56682 -3.08642,-0.42127 -2.58618,1.49164 0.81593,3.12016 -2.99691,5.53745 -6.6697,4.2285 z m 15.43049,-17.03522 c 2.52494,-2.52494 2.58982,-6.61397 0.12587,-7.93264 -1.46226,-0.78257 -2.28639,-0.53327 -3.75,1.13438 -1.66537,1.89755 -1.68309,2.06716 -0.1579,1.5115 0.94489,-0.34424 1.99613,-0.17583 2.33609,0.37424 0.87441,1.41482 -1.60533,4.10682 -3.21427,3.48941 -0.73689,-0.28276 -1.33979,0.0718 -1.33979,0.78783 0,3.17557 3.12847,3.50681 6,0.63528 z m 21.46036,-20.34736 c 1.25173,-0.91529 1.47999,-1.57147 0.7118,-2.04624 -1.45227,-0.89755 -5.41624,1.18966 -4.64115,2.44377 0.79799,1.29117 1.7519,1.19467 3.92935,-0.39753 z m 136.06704,-20.68292 c 3.74764,-4.14109 -1.81109,-10.46895 -6.08244,-6.92404 -1.87345,1.55482 -1.83361,3.95443 0.11174,6.73181 1.93278,2.75943 3.59888,2.81307 5.9707,0.19223 z M 90.93691,88.19915 c 0.24412,-0.73318 -0.44516,-1.25 -1.66714,-1.25 -1.22833,0 -2.08333,0.64569 -2.08333,1.57332 0,1.83788 3.12044,1.56887 3.75047,-0.32332 z m 21.24953,-3.25 c 0,-0.55 -0.42344,-1 -0.94098,-1 -0.51754,0 -1.2191,0.45 -1.55902,1 -0.33992,0.55 0.0835,1 0.94098,1 0.85746,0 1.55902,-0.45 1.55902,-1 z m 23,-4 c 0,-0.55 -0.675,-1 -1.5,-1 -0.825,0 -1.5,0.45 -1.5,1 0,0.55 0.675,1 1.5,1 0.825,0 1.5,-0.45 1.5,-1 z m 22.82332,-2.66713 c -0.48655,-2.50877 -2.82332,-2.85325 -2.82332,-0.4162 0,1.22833 0.64569,2.08333 1.57332,2.08333 0.93124,0 1.44138,-0.68037 1.25,-1.66713 z m 61.67668,-9.33287 c -0.48382,-0.782843 -1.05907,-0.840931 -1.72574,-0.174265 -0.55,0.55 -0.67341,1.528419 -0.27426,2.174265 0.48382,0.782843 1.05907,0.840931 1.72574,0.174265 0.55,-0.55 0.67341,-1.528419 0.27426,-2.174265 z m 21.30963,-1.75 c -0.40593,-2.107843 -2.18068,-1.974934 -2.63295,0.197179 -0.18865,0.905984 0.36259,1.552821 1.32332,1.552821 1.02996,0 1.52043,-0.655397 1.30963,-1.75 z m 24.19037,-3.809017 c 0,-1.469972 -2.13489,-1.972761 -3.32466,-0.782992 -0.90433,0.904331 1.33682,3.45253 2.43797,2.771982 0.48768,-0.301404 0.88669,-1.196449 0.88669,-1.98899 z m -86.52687,70.515547 c -0.97584,-1.57894 2.82091,-6.45653 5.0258,-6.45653 2.59051,0 4.27251,3.05015 2.89511,5.25 -1.27827,2.04152 -6.87772,2.89444 -7.92091,1.20653 z m 23.40948,-1.60242 c -2.41872,-0.42634 -2.65766,-0.9317 -3.14781,-6.65774 -0.29173,-3.408 -0.82726,-6.9258 -1.19008,-7.81733 -0.92756,-2.27925 1.28531,-2.96105 12.95528,-3.99165 5.5,-0.48571 11.82509,-1.14801 14.05576,-1.47176 2.78264,-0.40387 4.39196,-0.16912 5.12681,0.74786 1.18596,1.47988 3.29493,14.68748 2.62737,16.45411 -0.60892,1.61145 -24.57962,3.76728 -30.42733,2.73651 z m 14.51526,-6.61274 c 0.83585,-1.33373 0.73165,-2.42096 -0.43129,-4.5 -2.08342,-3.72464 -5.59741,-4.14571 -7.09876,-0.85062 -2.42343,5.31887 4.47708,10.22215 7.53005,5.35062 z m -55.35804,-3.19338 c -0.66835,-0.80532 -0.90775,-2.38878 -0.53751,-3.5553 0.54247,-1.70916 1.33986,-2.04608 4.25532,-1.79799 4.31528,0.36721 5.08878,1.95888 2.30486,4.7428 -2.42597,2.42597 -4.35378,2.62138 -6.02267,0.61049 z"
       id="path3081"
       inkscape:connector-curvature="0" />
    <path
       style="fill:#595959"
       d="m 101.75595,159.98437 c -2.05335,-0.7318 -5.72029,-10.9239 -5.94789,-16.5319 -0.10583,-2.60753 0.46276,-3.27957 4.37838,-5.17502 2.475,-1.19808 5.625,-2.4403 7,-2.76049 1.375,-0.32019 3.4,-1.28175 4.5,-2.13681 1.97633,-1.53626 1.97703,-1.57168 0.0589,-2.99283 -1.07793,-0.79861 -1.38009,-1.43817 -0.67948,-1.43817 0.69392,0 7.64242,-6.25654 15.44112,-13.90343 7.79871,-7.64688 15.64196,-15.11188 17.42946,-16.58889 4.11813,-3.4028 4.36309,-5.89841 0.5,-5.09386 -7.8867,1.64252 -52.6038,8.68057 -64.75,10.19103 -15.929217,1.98091 -52.646958,2.15627 -58.346775,0.27865 -2.342105,-0.77153 -3.768009,-2.11064 -4.75,-4.46087 -2.666513,-6.38187 -1.45997,-11.3136 3.376419,-13.80108 4.736872,-2.43629 31.372539,-7.5057 47.846436,-9.10632 20.09832,-1.95279 27.18617,-2.94927 46.37392,-6.519699 21.56436,-4.012671 38.6713,-6.721192 51,-8.074766 5.775,-0.634041 11.09538,-1.632979 11.82306,-2.219863 0.72768,-0.586883 3.36037,-0.961601 5.85043,-0.832706 5.58177,0.288935 5.57233,-1.880291 -0.0139,-3.201411 l -3.68666,-0.871876 2.76355,-3.326405 c 1.51996,-1.829523 3.46135,-4.32222 4.31421,-5.539327 1.31033,-1.869962 1.88132,-2.035953 3.68426,-1.071049 1.17344,0.62803 3.06315,1.141872 4.19931,1.141872 1.71769,0 2.06832,-0.631828 2.08105,-3.75 0.0272,-6.658796 1.59392,-6.967832 3.1432,-0.619995 l 1.42119,5.823012 5.46015,1.648406 c 4.07069,1.22893 5.46466,2.125565 5.47789,3.523491 0.0157,1.664681 0.80123,1.861194 7,1.751283 3.84024,-0.06809 14.18226,-1.166942 22.98226,-2.441891 20.40418,-2.956168 44.98813,-3.275005 50.68162,-0.657308 4.5736,2.102806 4.58375,2.119982 6.84118,11.571478 1.02054,4.272841 2.82219,10.217414 4.00366,13.210164 2.61031,6.61209 2.15415,10.69453 -1.71602,15.35757 -4.41194,5.31578 -22.41799,20.8369 -30.08914,25.93667 -3.82764,2.54461 -7.52339,5.30619 -8.21277,6.13685 -0.68938,0.83065 -1.82921,1.51027 -2.53295,1.51027 -1.2363,0 -16.47558,-25.91011 -16.47558,-28.01209 0,-0.57058 1.0125,-1.42519 2.25,-1.89914 5.57889,-2.13665 28.0018,-16.87234 27.32949,-17.96015 -0.50977,-0.82482 -0.55078,-0.82006 -36.07949,4.1846 -13.75,1.93686 -29.15856,3.97851 -34.24125,4.537 -10.33024,1.13509 -17.90939,4.44604 -21.40044,9.34876 -1.81373,2.54716 -2.55478,2.8024 -8.1764,2.8162 -11.62233,0.0285 -21.1354,4.89994 -26.6981,13.67141 -3.30767,5.21564 -3.63232,7.31681 -1.63762,10.59859 0.7404,1.21815 2.17582,5.07413 3.18982,8.56884 1.72416,5.94225 1.73413,6.4153 0.15381,7.29969 -0.9294,0.52012 -1.68982,1.82331 -1.68982,2.89598 0,1.09301 -0.6798,1.95031 -1.54651,1.95031 -0.85058,0 -2.31308,1.34715 -3.25,2.99368 -1.93631,3.40283 -3.32479,3.62043 -9.57066,1.4999 -4.12509,-1.40051 -4.76155,-1.36733 -9.0523,0.4719 -2.53839,1.08808 -5.7401,3.10319 -7.11493,4.47801 -2.00409,2.00409 -3.12235,2.37516 -5.64021,1.87159 -2.83408,-0.56682 -3.08642,-0.42127 -2.58618,1.49164 0.81593,3.12016 -2.99691,5.53745 -6.6697,4.2285 z m 15.43049,-17.03522 c 2.52494,-2.52494 2.58982,-6.61397 0.12587,-7.93264 -1.46226,-0.78257 -2.28639,-0.53327 -3.75,1.13438 -1.66537,1.89755 -1.68309,2.06716 -0.1579,1.5115 0.94489,-0.34424 1.99613,-0.17583 2.33609,0.37424 0.87441,1.41482 -1.60533,4.10682 -3.21427,3.48941 -0.73689,-0.28276 -1.33979,0.0718 -1.33979,0.78783 0,3.17557 3.12847,3.50681 6,0.63528 z m 21.46036,-20.34736 c 1.25173,-0.91529 1.47999,-1.57147 0.7118,-2.04624 -1.45227,-0.89755 -5.41624,1.18966 -4.64115,2.44377 0.79799,1.29117 1.7519,1.19467 3.92935,-0.39753 z m 136.06704,-20.68292 c 3.74764,-4.14109 -1.81109,-10.46895 -6.08244,-6.92404 -1.87345,1.55482 -1.83361,3.95443 0.11174,6.73181 1.93278,2.75943 3.59888,2.81307 5.9707,0.19223 z M 90.93691,88.19915 c 0.24412,-0.73318 -0.44516,-1.25 -1.66714,-1.25 -1.22833,0 -2.08333,0.64569 -2.08333,1.57332 0,1.83788 3.12044,1.56887 3.75047,-0.32332 z m 21.24953,-3.25 c 0,-0.55 -0.42344,-1 -0.94098,-1 -0.51754,0 -1.2191,0.45 -1.55902,1 -0.33992,0.55 0.0835,1 0.94098,1 0.85746,0 1.55902,-0.45 1.55902,-1 z m 23,-4 c 0,-0.55 -0.675,-1 -1.5,-1 -0.825,0 -1.5,0.45 -1.5,1 0,0.55 0.675,1 1.5,1 0.825,0 1.5,-0.45 1.5,-1 z m 22.82332,-2.66713 c -0.48655,-2.50877 -2.82332,-2.85325 -2.82332,-0.4162 0,1.22833 0.64569,2.08333 1.57332,2.08333 0.93124,0 1.44138,-0.68037 1.25,-1.66713 z m 61.67668,-9.33287 c -0.48382,-0.782843 -1.05907,-0.840931 -1.72574,-0.174265 -0.55,0.55 -0.67341,1.528419 -0.27426,2.174265 0.48382,0.782843 1.05907,0.840931 1.72574,0.174265 0.55,-0.55 0.67341,-1.528419 0.27426,-2.174265 z m 21.30963,-1.75 c -0.40593,-2.107843 -2.18068,-1.974934 -2.63295,0.197179 -0.18865,0.905984 0.36259,1.552821 1.32332,1.552821 1.02996,0 1.52043,-0.655397 1.30963,-1.75 z m 24.19037,-3.809017 c 0,-1.469972 -2.13489,-1.972761 -3.32466,-0.782992 -0.90433,0.904331 1.33682,3.45253 2.43797,2.771982 0.48768,-0.301404 0.88669,-1.196449 0.88669,-1.98899 z M 141.20868,151.85414 c -0.0122,-0.87726 0.87776,-2.4095 1.97776,-3.40499 2.55251,-2.30999 2.55251,-0.76319 0,2.5 -1.42357,1.81993 -1.96158,2.06611 -1.97776,0.90499 z m 40.38172,-19.29467 c -0.90952,-2.37017 1.16334,-4.44302 2.80318,-2.80318 0.94286,0.94286 0.84144,1.57285 -0.46325,2.87754 -1.56053,1.56054 -1.71444,1.55564 -2.33993,-0.0744 z m 20.98542,-0.23997 c -1.87719,-0.42062 -2.17273,-1.37907 -2.6722,-8.66611 -0.30886,-4.50625 -0.38309,-8.37166 -0.16496,-8.5898 0.21814,-0.21814 5.02063,-0.78216 10.6722,-1.25339 5.65157,-0.47123 12.10067,-1.12167 14.33134,-1.44542 2.78264,-0.40387 4.39196,-0.16912 5.12681,0.74786 1.18596,1.47988 3.29493,14.68748 2.62737,16.45411 -0.59699,1.5799 -25.09579,3.83384 -29.92056,2.75275 z m 14.00849,-6.62898 c 0.83585,-1.33373 0.73165,-2.42096 -0.43129,-4.5 -2.08342,-3.72464 -5.59741,-4.14571 -7.09876,-0.85062 -2.42343,5.31887 4.47708,10.22215 7.53005,5.35062 z m -53.66945,-4.34628 c -1.08917,-1.08917 0.22702,-2.39509 2.41393,-2.39509 1.17476,0 1.84965,0.52459 1.60812,1.25 -0.47547,1.428 -3.01588,2.15126 -4.02205,1.14509 z"
       id="path3079"
       inkscape:connector-curvature="0" />
    <path
       style="fill:#2f2f2f"
       d="m 100.82054,157.76612 c -0.19499,-0.72433 -1.31032,-4.458 -2.47853,-8.29704 -2.47155,-8.12219 -2.31862,-8.42294 5.58267,-10.97857 2.88103,-0.93185 5.49509,-2.10987 5.80901,-2.61782 0.31393,-0.50795 1.02689,-0.92354 1.58435,-0.92354 0.55746,0 0.0565,1.21667 -1.11318,2.70371 -1.34245,1.70665 -3.12089,2.72078 -4.82258,2.75 -2.55349,0.0438 -2.68475,0.28391 -2.48584,4.54629 0.13529,2.89924 0.84674,5.03359 2,6 0.98889,0.82868 1.79,2.84264 1.79,4.5 0,2.53088 -0.43092,3.04957 -2.75569,3.31697 -1.6561,0.19049 -2.89715,-0.20853 -3.11021,-1 z m 9.01591,-5.50029 c -0.37582,-0.37582 0.74227,-1.28273 2.48465,-2.01535 1.74239,-0.73262 2.88512,-1.61488 2.53942,-1.96059 -0.34571,-0.3457 0.7112,-2.15445 2.34868,-4.01944 3.88402,-4.42366 3.89497,-7.88762 0.0319,-10.1047 -4.01777,-2.30589 -4.35255,-4.55704 -1.13597,-7.63872 3.23788,-3.10209 4.21268,-3.1984 5.84922,-0.57788 1.77975,2.84984 8.23207,2.46422 8.23207,-0.49198 0,-2.10148 -4.82936,-4.69695 -7.28774,-3.91669 -1.92959,0.61242 -2.03462,0.50201 -0.86411,-0.90836 2.32405,-2.80031 4.79644,-2.91685 7.55931,-0.35632 1.4259,1.32148 2.59254,2.91359 2.59254,3.53802 0,1.59968 3.96926,1.39981 7.36431,-0.37083 5.27347,-2.75031 6.25099,-2.11903 8.57703,5.53896 2.33384,7.68364 2.13078,8.9672 -1.41857,8.9672 -3.28612,0 -5.62327,1.02836 -4.92071,2.16514 0.72682,1.17601 -1.5161,6.83486 -2.70903,6.83486 -0.47538,0 -2.85849,-0.53336 -5.29581,-1.18524 -4.0587,-1.08554 -4.98145,-0.9515 -10.96945,1.59344 -3.59588,1.52827 -7.06328,3.41163 -7.70531,4.18524 -1.23001,1.48206 -4.11753,1.87816 -5.27245,0.72324 z m 71.52287,-20.97587 c 0.42145,-2.18841 3.32712,-2.49801 3.32712,-0.35451 0,0.81747 -0.82837,1.64584 -1.84081,1.84082 -1.3364,0.25736 -1.74367,-0.14991 -1.48631,-1.48631 z m 25.82712,-1.75902 c 0,-1.33002 -0.29534,-3.24252 -0.65632,-4.25 -0.39668,-1.10711 0.22545,-0.74386 1.57258,0.91821 2.57862,3.18148 6.04082,3.5599 8.42875,0.92126 2.19383,-2.42415 2.08699,-4.35234 -0.41759,-7.5364 -2.47456,-3.14589 -4.96252,-3.35855 -7.42742,-0.63486 -0.99549,1.1 -2.09259,2 -2.43801,2 -0.6858,0 -0.67327,-4.75607 0.0141,-5.35471 0.23315,-0.20304 5.406,-0.6594 11.49523,-1.01413 l 11.07132,-0.64496 1.11952,7.23272 c 0.61574,3.978 0.99983,7.35241 0.85354,7.4987 -0.56664,0.56665 -17.28784,3.2465 -20.36571,3.26395 -2.77577,0.0157 -3.25,-0.33443 -3.25,-2.39978 z m -6.16667,-4.08179 c -0.0917,-3.025 -0.20416,-6.25 -0.25,-7.16667 -0.0458,-0.91666 0.41344,-1.83225 1.02059,-2.03464 0.67954,-0.22651 1.33968,1.88764 1.71718,5.49935 0.33729,3.22703 0.90117,6.61762 1.25307,7.53464 0.4725,1.23131 0.0888,1.66732 -1.46718,1.66732 -1.86706,0 -2.12597,-0.62631 -2.27366,-5.5 z m 56.93896,-4.25 c -0.75581,-1.5125 -3.93877,-7.31736 -7.07324,-12.89969 -5.81017,-10.3476 -6.55414,-12.35031 -4.58793,-12.35031 1.52684,0 17.21664,-9.50109 23.67346,-14.33566 2.90652,-2.17627 5.11674,-4.45353 4.91159,-5.06059 -0.42045,-1.2442 -8.46004,-0.99673 -13.19617,0.40619 -3.94732,1.16926 -31.20912,4.81028 -44.5,5.9433 -21.35894,1.82082 -28.19616,3.76805 -35.38102,10.07644 -2.0755,1.82231 -3.59078,2.55491 -3.82586,1.84969 -0.29262,-0.87786 -1.74251,-0.83698 -5.84118,0.16468 -8.11638,1.98355 -15.97452,6.20994 -22.30711,11.99758 -4.86794,4.44902 -5.64483,4.86094 -5.64483,2.99297 0,-1.19135 0.46583,-3.0365 1.03518,-4.10034 1.24333,-2.32318 0.9264,-2.36288 -3.63817,-0.45567 l -3.53876,1.47858 2.53581,-3.01364 c 1.3947,-1.65751 3.9016,-4.16287 5.57088,-5.56748 3.22385,-2.7127 3.90355,-5.10555 1.69136,-5.95444 -1.33967,-0.51409 -3.33539,-0.22839 -24.1563,3.4581 -16.48717,2.91916 -44.64095,6.97519 -56.5,8.13978 -11.657755,1.14482 -42.032508,0.37708 -46.12028,-1.16572 -2.965177,-1.11912 -4.87972,-4.57924 -4.87972,-8.81904 0,-4.17799 0.912596,-5.9383 3.871181,-7.46712 5.101336,-2.63606 31.420783,-7.63616 50.408969,-9.57656 27.22295,-2.78191 31.29779,-3.37023 58.71985,-8.47798 14.00085,-2.607857 29.2139,-4.819176 35.5,-5.160163 10.95341,-0.594163 11.04024,-0.580904 20.5,3.130542 5.225,2.049978 10.0193,4.381758 10.654,5.181733 1.9283,2.430438 2.59902,-0.349396 0.76109,-3.154423 -1.19504,-1.823868 -2.0127,-2.259675 -2.88357,-1.536921 -0.66854,0.554846 -1.51163,0.712714 -1.87353,0.350819 -1.14129,-1.141286 -0.71289,-4.32157 0.59201,-4.394942 0.6875,-0.03866 0.35,-0.431488 -0.75,-0.872959 -1.66394,-0.6678 -1.24387,-0.998095 2.5,-1.965697 2.475,-0.639663 6.525,-1.8767 9,-2.748971 2.475,-0.872272 6.975,-1.517043 10,-1.432825 3.025,0.08422 13.825,-1.015118 24,-2.442969 33.29221,-4.671871 53.04096,-4.388909 57.70645,0.826826 1.08573,1.213784 2.54611,4.90688 3.24528,8.20688 0.69917,3.3 2.34605,8.665084 3.65974,11.92241 4.48488,11.12036 3.27653,13.72459 -13.11147,28.25774 -7.59086,6.7317 -27.3556,21.31985 -28.88517,21.31985 -0.25759,0 -1.08673,-1.2375 -1.84254,-2.75 z m 17.18875,-18.43856 c 2.4429,-2.62214 2.56918,-4.60943 0.48226,-7.58893 -3.3473,-4.77893 -10.24657,-1.15627 -8.95936,4.70437 1.11969,5.0979 5.14042,6.46606 8.4771,2.88456 z M 91.15009,89.49295 c 1.49914,-1.80636 0.53641,-3.5438 -1.96365,-3.5438 -2.24793,0 -3.38867,1.54475 -2.62,3.54789 0.71592,1.86564 3.03363,1.86357 4.58365,-0.004 z m 21.86865,-3.9115 c 0.5236,-2.71888 -1.13289,-3.86421 -3.29853,-2.28065 -1.18269,0.8648 -1.61888,1.98417 -1.19927,3.07765 0.84179,2.19368 4.03066,1.62862 4.4978,-0.797 z m 22.6677,-4.6323 c 0,-2.16873 -3.90136,-1.86998 -4.32527,0.33121 -0.27348,1.42006 0.17249,1.75684 1.98631,1.5 1.28643,-0.18217 2.33896,-1.00621 2.33896,-1.83121 z m 22.33749,0.1216 c 2.06254,-1.30735 1.0466,-5.6216 -1.32379,-5.6216 -2.05568,0 -3.10989,2.50398 -2.12966,5.05841 0.62844,1.63769 1.52707,1.78424 3.45345,0.56319 z m 62.80577,-9.634335 c 0.75757,-1.974201 -1.38765,-4.522582 -3.21637,-3.820835 -1.46841,0.563481 -1.94401,3.483118 -0.76022,4.666903 1.17939,1.179397 3.37893,0.711417 3.97659,-0.846068 z m 21.19365,-3.878921 c 0.40674,-2.112043 -1.4806,-3.682302 -3.49623,-2.908835 -1.41845,0.54431 -1.82143,3.486403 -0.63944,4.668394 1.24053,1.240529 3.76473,0.166585 4.13567,-1.759559 z m 23.98264,-3.848128 c -0.35663,-2.499688 -3.65036,-3.652001 -4.8572,-1.699293 -1.25496,2.030558 0.0601,3.939077 2.71419,3.939077 1.97889,0 2.3998,-0.439919 2.14301,-2.239784 z M 163.18644,119.94915 c 0,-0.55 0.675,-1 1.5,-1 0.825,0 1.5,0.45 1.5,1 0,0.55 -0.675,1 -1.5,1 -0.825,0 -1.5,-0.45 -1.5,-1 z m 20.8125,-58.683114 c 0.72187,-0.288871 1.58437,-0.253344 1.91667,0.07895 0.33229,0.332292 -0.25834,0.568641 -1.3125,0.52522 -1.16495,-0.04798 -1.4019,-0.284941 -0.60417,-0.604167 z M 197.3878,50.306509 c -0.54536,-1.029475 -0.66872,-3.640286 -0.27677,-5.857359 l 0.70716,-4 1.12236,5 c 1.15551,5.147658 0.19415,8.155006 -1.55275,4.857359 z"
       id="path3077"
       inkscape:connector-curvature="0" />
    <path
       style="fill:#090909"
       d="m 117.64069,146.87512 c -0.36508,-0.59071 0.28336,-2.08222 1.44098,-3.31445 1.15762,-1.23223 2.10477,-2.99892 2.10477,-3.92597 0,-0.92705 0.45,-1.68555 1,-1.68555 0.55,0 1,1.125 1,2.5 0,1.375 0.45,2.5 1,2.5 1.48957,0 1.20954,-4.25425 -0.55858,-8.48596 -0.85722,-2.05162 -1.32663,-3.96217 -1.04313,-4.24566 1.31436,-1.31436 3.33404,0.97376 5.52458,6.25883 2.30927,5.57151 2.32793,5.81623 0.54316,7.12129 -1.01656,0.74332 -2.83218,1.3515 -4.03471,1.3515 -1.20254,0 -2.74663,0.675 -3.43132,1.5 -1.46873,1.76972 -2.62912,1.90912 -3.54575,0.42597 z m 3.19491,-11.39785 c -0.32885,-0.85697 -1.73444,-1.99024 -3.12353,-2.51838 -2.99169,-1.13743 -3.23095,-3.06146 -0.66901,-5.37998 1.61226,-1.45907 2.01511,-1.48924 3.06087,-0.22918 0.66234,0.79807 1.08864,2.04693 0.94733,2.77523 -0.1413,0.72831 0.0974,2.3706 0.53044,3.64955 0.87833,2.59405 0.19466,4.15434 -0.7461,1.70276 z m 22.22963,-1.75459 c -2.15839,-4.03301 -2.76984,-8.61906 -1.31063,-9.8301 0.73933,-0.61359 1.77182,-0.85134 2.29443,-0.52835 1.02738,0.63495 4.13741,9.10123 4.13741,11.26306 0,2.17279 -3.83696,1.49502 -5.12121,-0.90461 z m 68.87121,-3.43581 c 0.6875,-0.27741 1.8125,-0.27741 2.5,0 0.6875,0.27741 0.125,0.50439 -1.25,0.50439 -1.375,0 -1.9375,-0.22698 -1.25,-0.50439 z m 47.42947,-8.68398 c -1.59154,-2.02754 -13.36148,-23.80787 -13.01383,-24.08215 1.16,-0.91519 7.34337,-3.57159 8.31368,-3.57159 1.21766,0 5.52068,4.12714 5.52068,5.29503 0,1.59229 7.20979,11.74688 9.03317,12.72272 2.54811,1.36371 4.28972,0.32499 3.63742,-2.16942 -0.28706,-1.0977 0.26223,-2.66184 1.27727,-3.63714 0.97951,-0.94115 2.31688,-2.74069 2.97193,-3.99896 2.23466,-4.2925 -1.27741,-10.21223 -6.05873,-10.21223 l -2.82896,0 2.06572,-3.96318 c 1.13615,-2.17975 1.79864,-4.39534 1.4722,-4.92353 -0.32645,-0.5282 0.76176,-1.92541 2.41822,-3.10492 6.48571,-4.61823 1.42214,-6.41752 -11.10175,-3.94491 -9.39653,1.85518 -37.34228,5.66925 -38.47224,5.25075 -1.92523,-0.71305 -4.63875,-7.48971 -3.46787,-8.660587 0.57949,-0.579492 1.05362,-1.60648 1.05362,-2.282194 0,-2.033196 -3.0923,-4.476908 -4.92791,-3.89431 -1.2129,0.384961 -2.65025,-0.754291 -4.89463,-3.879534 -1.7476,-2.433497 -3.17746,-4.621636 -3.17746,-4.86253 0,-0.240895 3.7125,-0.708283 8.25,-1.038641 4.5375,-0.330357 14.55,-1.510387 22.25,-2.622289 22.30223,-3.220505 34.17453,-4.067263 42.41537,-3.025156 8.01601,1.013676 12.08463,2.959605 12.08463,5.779804 0,2.510241 -4.0971,7.863102 -10.2483,13.389399 -5.56918,5.003398 -5.35095,6.449408 0.35042,2.321969 1.86883,-1.352923 5.19788,-3.438374 7.39788,-4.634335 2.2,-1.195961 4.31329,-2.663913 4.69621,-3.262115 0.45927,-0.717504 0.8509,-0.58671 1.15079,0.384334 0.25002,0.809586 1.62422,4.76022 3.05379,8.779185 4.12456,11.59545 3.96507,12.16931 -6.16206,22.17188 -8.11092,8.01116 -17.86978,15.85071 -29.44618,23.65488 -3.39236,2.28695 -4.96044,2.8512 -5.61308,2.01977 z M 242.14657,69.497189 c 2.08236,-2.509086 0.84501,-5.048039 -2.46013,-5.048039 -2.06626,0 -3.07819,0.548224 -3.31888,1.798039 -0.39704,2.061666 1.46661,4.701961 3.31888,4.701961 0.69031,0 1.79737,-0.653382 2.46013,-1.451961 z m 24.7304,-4.183962 c 0.7975,-2.07824 -0.86003,-4.757073 -3.23162,-5.222818 -2.56129,-0.503 -4.6658,2.603653 -3.38498,4.996881 1.23654,2.310503 5.75744,2.464878 6.6166,0.225937 z m -49.49565,54.164303 c -0.6336,-1.39061 -1.72415,-2.54206 -2.42344,-2.55879 -0.77588,-0.0186 -0.62285,-0.40894 0.39262,-1.00159 3.44089,-2.0082 6.20698,1.32322 3.99407,4.81038 -0.58849,0.92736 -1.12755,0.58414 -1.96325,-1.25 z M 29.844796,103.02669 c -7.776443,-0.50796 -9.077319,-0.86908 -10.797853,-2.99742 -2.96905,-3.67279 -2.262981,-11.13372 1.210481,-12.79098 3.885058,-1.85364 28.234654,-7.06847 38.429016,-8.23014 13.79951,-1.57249 37.40142,-4.059 38.52799,-4.059 0.55313,0 -0.13446,2.25 -1.52799,5 -2.1771,4.2963 -2.94859,5 -5.48166,5 -3.56642,0 -5.88404,3.25197 -3.96529,5.56392 0.65551,0.78985 1.81174,1.43608 2.56939,1.43608 1.64409,0 1.67063,0.40464 0.3406,5.19343 -0.93471,3.36542 -1.40047,3.74342 -5.24443,4.25626 -18.420068,2.45751 -34.121147,2.93029 -54.060254,1.62785 z M 114.20386,91.06785 c 6.53276,-12.25671 21.40082,-22.844621 35.23135,-25.08911 6.31537,-1.02489 14.2096,-1.268638 10.25123,-0.316524 -4.23027,1.017514 -3.31549,2.034135 3.71446,4.12798 7.93491,2.363382 9.83634,3.490304 11.65738,6.908954 1.24492,2.3371 4.52782,3.03039 5.66174,1.19566 0.43246,-0.69973 1.46129,-0.52382 3.05902,0.52306 1.32407,0.86756 2.4074,1.26357 2.4074,0.88002 0,-0.38355 1.09169,0.32822 2.42597,1.58171 2.45295,2.30443 4.57403,2.10482 4.57403,-0.43045 0,-2.49899 1.9816,-2.67449 5.51824,-0.48873 1.91497,1.18352 3.48176,2.46252 3.48176,2.84224 0,0.37971 -2.93709,1.24754 -6.52686,1.92852 -6.04451,1.14663 -6.7281,1.09086 -9.25,-0.75464 -3.76589,-2.75586 -13.59954,-5.98316 -20.41863,-6.70119 -3.42447,-0.36059 -5.90408,-1.1433 -6.21862,-1.96296 -0.91012,-2.371751 -4.58233,-1.53152 -6.28688,1.43849 -0.92833,1.61752 -3.45449,3.56546 -5.97666,4.60864 -2.40278,0.9938 -6.84833,4.18945 -9.87901,7.10144 -5.81421,5.58653 -5.56207,5.49502 -22.33191,8.10508 l -4.38858,0.68304 3.29457,-6.18123 z m 21.81227,-8.8687 c 1.302,-2.5315 0.35353,-4.25 -2.34564,-4.25 -2.4002,0 -4.20846,3.01886 -2.98958,4.99105 1.0046,1.62547 4.3576,1.15975 5.33522,-0.74105 z"
       id="path3075"
       inkscape:connector-curvature="0" />
  </g>
</svg>
