<?xml version="1.0" encoding="UTF-8" standalone="no"?>
<!-- Created with Inkscape (http://www.inkscape.org/) -->

<svg
   xmlns:dc="http://purl.org/dc/elements/1.1/"
   xmlns:cc="http://creativecommons.org/ns#"
   xmlns:rdf="http://www.w3.org/1999/02/22-rdf-syntax-ns#"
   xmlns:svg="http://www.w3.org/2000/svg"
   xmlns="http://www.w3.org/2000/svg"
   xmlns:sodipodi="http://sodipodi.sourceforge.net/DTD/sodipodi-0.dtd"
   xmlns:inkscape="http://www.inkscape.org/namespaces/inkscape"
   id="svg7138"
   viewBox="0 0 214.91785 446.04459"
   version="1.0"
   inkscape:version="0.48.4 r9939"
   width="100%"
   height="100%"
   sodipodi:docname="duster.svg">
  <defs
     id="defs3020" />
  <sodipodi:namedview
     pagecolor="#ffffff"
     bordercolor="#666666"
     borderopacity="1"
     objecttolerance="10"
     gridtolerance="10"
     guidetolerance="10"
     inkscape:pageopacity="0"
     inkscape:pageshadow="2"
     inkscape:window-width="1375"
     inkscape:window-height="1120"
     id="namedview3018"
     showgrid="false"
     inkscape:zoom="1.6657528"
     inkscape:cx="-35.407901"
     inkscape:cy="235.1502"
     inkscape:window-x="0"
     inkscape:window-y="27"
     inkscape:window-maximized="0"
     inkscape:current-layer="svg7138"
     fit-margin-top="0"
     fit-margin-left="0"
     fit-margin-right="0"
     fit-margin-bottom="0" />
  <g
     id="layer1"
     transform="translate(-677.46627,480.50844)">
    <path
       id="path7215"
       style="fill:#000000"
       d="m 883.4101,-407.23 c -752.83341,934.08665 -376.41671,467.043325 0,0 z M 699.9056,-38.689 c -5.23,-3.049 -6.06,-12.192 -2.15,-23.743 7.66589,-38.20362 7.45668,-12.081437 23.97,-89.009 0.32,-1.47 0.99,-3.7 1.5,-4.96 0.51,-1.27 0.93,-3.32 0.93,-4.56 0,-1.25 0.6,-3.08 1.33,-4.07 0.87,-1.2 1.19,-3.9 0.94,-7.95 -0.22,-3.58 0.23,-8.21 1.09,-11.13 0.8,-2.75 2.7,-10.4 4.2,-17 3.35,-14.65 8.46,-34.71 9.13,-35.79 0.27,-0.44 1.33,-4.72 2.36,-9.5 1.03,-4.79 2.79,-12.74 3.91,-17.66 2.84,-12.44 2.68,-20.11 -0.59,-28.28 -2.81,-7.03 -2.78,-5.35 -0.48,-26.5 0.47,-4.26 1.42,-8.44 2.13,-9.29 1.08,-1.3 0.83,-2.03 -1.61,-4.58 -1.6,-1.67 -2.77,-3.87 -2.61,-4.88 0.16,-1.01 -0.17,-2.13 -0.75,-2.49 -0.58,-0.35 -1.05,-1.76 -1.05,-3.12 0,-1.75 -0.98,-3.06 -3.37,-4.47 -3.66,-2.16 -5.32,-6.4 -5.85,-14.94 -0.26,-4.24 -0.12,-4.52 2.47,-4.81 3.26,-0.38 3.35,-1.27 0.73,-7.05 -1.09,-2.39 -1.98,-5.17 -1.98,-6.16 0,-2.41 -4.92,-12.15 -6.92,-13.71 -0.87,-0.67 -4.05,-2.15 -7.08,-3.29 -3.02,-1.14 -6.83,-3.03 -8.45,-4.2 -3.18,-2.3 -10.32,-4.02 -17.55,-4.21 -4.28,-0.12 -4.51,-0.28 -4.81,-3.28 -0.23,-2.43 0.48,-4.02 3.12,-6.97 2.47,-2.76 3.23,-4.35 2.73,-5.75 -1.33,-3.71 0.03,-6.45 4.08,-8.24 l 3.9,-1.72 -2.97,-2.71 c -2.68,-2.45 -2.87,-3.03 -2.01,-6.05 0.53,-1.84 1.74,-3.93 2.71,-4.64 0.99,-0.73 1.62,-2.28 1.46,-3.55 -0.17,-1.31 0.57,-3.05 1.75,-4.12 1.12,-1.01 2.04,-2.44 2.04,-3.17 0,-2.59 4.72,-2.56 11.96,0.05 7.23,2.61 11.04,3.23 11.04,1.81 0,-0.43 -1.35,-2.26 -3,-4.07 -1.65,-1.8 -3,-3.49 -3,-3.74 0,-0.25 1.09,-2.18 2.42,-4.28 1.89,-3 3.46,-4.13 7.25,-5.23 7.1,-2.05 14.32,-1.49 20.01,1.53 5.89,3.14 7.69,3.28 6.82,0.56 -0.45,-1.42 -0.11,-2.17 1.18,-2.57 1,-0.3 3.62,-1.4 5.82,-2.44 5.44,-2.56 12.38,-3.25 14.22,-1.41 0.78,0.78 2.74,1.42 4.35,1.42 1.61,0 2.93,0.44 2.93,0.99 0,0.54 2.25,2.12 5,3.51 2.75,1.4 5,3.13 5,3.86 0,0.73 0.88,2.13 1.95,3.09 1.19,1.08 2.07,3.38 2.25,5.91 0.29,4.02 0.4,4.13 3.55,3.83 2.42,-0.24 3.25,0.09 3.25,1.25 0,0.99 0.9,1.56 2.45,1.56 1.37,0 3.1,0.95 3.95,2.16 1.19,1.69 1.82,1.91 2.9,1.01 4.93,-4.09 13.25,-7.32 19.87,-7.7 3.84,-0.22 7.73,0 8.65,0.49 0.93,0.49 2.47,1.14 3.43,1.44 1.06,0.33 1.75,1.53 1.75,3.05 0,1.92 0.65,2.66 2.75,3.15 1.52,0.34 5.34,3.29 8.5,6.53 4.79,4.92 5.75,6.5 5.75,9.43 0,4.51 2.56,8.44 5.51,8.44 3.43,0 6.48,3.07 7.14,7.18 0.49,3.06 0.16,4.1 -1.98,6.25 -1.66,1.65 -3.68,2.57 -5.67,2.57 -3.74,0 -9.27,2.68 -8.75,4.24 0.21,0.62 2.82,1.63 5.81,2.24 3,0.61 6.48,1.69 7.75,2.38 3.1,1.71 6.18,6.97 6.22,10.64 0.03,1.65 0.69,4.13 1.47,5.5 2.03,3.55 1.83,7.33 -0.6,11.45 -1.15,1.95 -2.21,3.55 -2.36,3.55 -0.14,0 -1.98,-1.36 -4.08,-3.03 -5.71,-4.54 -11.99,-6.97 -18.03,-6.97 -2.92,0 -5.56,0.42 -5.88,0.92 -0.31,0.5 2.55,2.35 6.35,4.1 5.17,2.39 7.69,4.28 10.01,7.5 3.67,5.12 3.82,7.11 0.89,12.18 -3.09,5.32 -3.83,5.55 -6.22,1.96 -2.5,-3.75 -6.64,-5.93 -16.67,-8.77 -8.85,-2.51 -14.61,-2.5 -17.39,0.04 -1.11,1.01 -3.14,2.18 -4.52,2.59 -1.37,0.41 -5.2,2.15 -8.5,3.86 -3.3,1.71 -7.25,3.34 -8.79,3.62 -1.53,0.28 -2.74,0.95 -2.69,1.5 0.11,1.1 0.67,1.12 6.23,0.23 3.58,-0.57 3.75,-0.47 3.75,2.18 0,3.05 0.75,2.56 -16.2,10.48 -5.33,2.49 -11.03,5.92 -12.66,7.63 -3.24,3.38 -6.14,8.81 -6.14,11.48 0,1.94 -2.69,12.01 -4,15 -0.48,1.1 -1.17,3.46 -1.52,5.25 -0.35,1.79 -1.41,3.81 -2.35,4.5 -7.07,5.15 -13.87,20.37 -19.12,42.75 -1.22,5.23 -3.08,12.36 -4.12,15.86 -1.04,3.49 -1.89,7.67 -1.89,9.27 0,3.51 -4.24,21.92 -7.06,30.63 -1.31,4.04 -1.8,7.44 -1.4,9.59 0.86,4.61 -1.01,10.83 -4.07,13.49 -1.4,1.22 -2.26,2.68 -1.91,3.25 0.35,0.57 0.11,2.31 -0.54,3.86 -7.09966,34.50894 -11.22672,69.989091 -20.33,87.476 -1.33,2.792 -1.95,6.685 -2.14,13.5 -0.32,10.99 -2.21,16.772 -6.73,20.58 -3.32,2.789 -3.6,2.854 -6.07,1.416 z m 6.02,-22.732 c 0.22,-0.653 -0.31,-1.188 -1.18,-1.188 -0.87,0 -1.59,0.713 -1.59,1.584 0,1.765 2.16,1.458 2.77,-0.396 z m 32.05,-115.47 c 1.19,-1.43 0.74,-2.33 -2.55,-5.11 -1.83,-1.54 -2.5,-1.66 -3.75,-0.62 -1.83,1.52 -2.01,5.65 -0.27,6.35 2.37,0.96 5.51,0.66 6.57,-0.62 z m 20.18,-117.79 c 0,-7.16 -0.2,-8.03 -1.75,-7.72 -1.36,0.27 -1.69,1.21 -1.48,4.26 0.28,4.27 2.03,11.53 2.77,11.53 0.26,0 0.46,-3.63 0.46,-8.07 z m 20,-14.05 c 0,-3.68 -0.26,-4.01 -5.25,-6.47 -6.33,-3.14 -17.79,-4.45 -20.34,-2.33 -2.37,1.97 -3.66,5.92 -2.41,7.41 0.58,0.7 4.31,1.46 8.48,1.73 5.33,0.34 8.82,1.19 12.24,2.98 5.7,2.99 7.28,2.27 7.28,-3.32 z m 0.09,-10.71 c -1.57,-2.94 -3.2,-3.86 -9.92,-5.56 -7.86,-2 -12.22,-2.04 -14.73,-0.14 -2.33,1.76 -2.35,1.76 4.56,2.04 3.03,0.12 8.65,1.37 12.5,2.78 8.57,3.13 8.81,3.16 7.59,0.88 z m -28.09,-31.17 c 0,-0.55 -0.45,-1 -1,-1 -0.55,0 -1,0.45 -1,1 0,0.55 0.45,1 1,1 0.55,0 1,-0.45 1,-1 z m 98,-21.53 c 0,-2.25 -0.23,-2.41 -2.06,-1.43 -1.65,0.88 -1.83,1.39 -0.88,2.53 1.79,2.16 2.94,1.73 2.94,-1.1 z m -135.07,-43.92 10.43,-0.05 0.74,-2.76 c 0.63,-2.38 0.26,-3.12 -2.71,-5.39 -3.79,-2.89 -5.23,-2.67 -3.24,0.51 1.69,2.71 0.48,3.75 -2.69,2.3 -4.59,-2.09 -8.93,-1.41 -13.3,2.09 -4.53,3.64 -5.29,5.28 -1.91,4.12 1.24,-0.43 6.95,-0.8 12.68,-0.82 z m 133.84,-9.34 c 0.66,-2 -1.48,-1.36 -4.46,1.32 l -2.81,2.53 3.43,-1.33 c 1.89,-0.72 3.62,-1.86 3.84,-2.52 z m -51.67,-12.92 c -0.96,-1.65 -1.04,-1.63 -1.07,0.3 -0.03,2.31 1.24,4.12 1.77,2.51 0.19,-0.56 -0.12,-1.83 -0.7,-2.81 z m 37.65,0.72 c 3.62,-2.2 4.34,-4.1 1.25,-3.3 -1.1,0.29 -2,0.89 -2,1.34 0,0.45 -0.9,1.1 -2,1.45 -1.1,0.35 -2,1.06 -2,1.57 0,1.39 1.15,1.14 4.75,-1.06 z m -103.75,-8.4 c 0,-1.44 -2.07,-2.61 -4.61,-2.61 -1.15,0 -1.23,0.43 -0.39,2 1.22,2.27 5,2.73 5,0.61 z m 131.491,99.046 c -5.54,-3.72 -17.19,-8.66 -20.41,-8.66 -1.15,0 -2.08,-0.65 -2.08,-1.45 0,-2.33 9.47,-0.76 16.83,2.79 5.8,2.8 11.17,7.48 11.17,9.74 0,1.29 0.05,1.3 -5.51,-2.42 z"
       inkscape:connector-curvature="0"
       sodipodi:nodetypes="ccccccscccccccccccscsccccscccccsccccccccscscsccccccssscscccsscccccsccssccsccccccscsccccccccscccsccscscccscccsccccccssccccccsccssscccccsccccccssssssccsccccccccccccccccccccssscsscscsscsc" />
  </g>
  <metadata
     id="metadata3016">
    <rdf:RDF>
      <cc:Work>
        <dc:format>image/svg+xml</dc:format>
        <dc:type
           rdf:resource="http://purl.org/dc/dcmitype/StillImage" />
        <cc:license
           rdf:resource="http://creativecommons.org/licenses/publicdomain/" />
        <dc:publisher>
          <cc:Agent
             rdf:about="http://openclipart.org/">
            <dc:title>Openclipart</dc:title>
          </cc:Agent>
        </dc:publisher>
        <dc:title>Wife on a Pedestal</dc:title>
        <dc:date>2013-03-05T10:31:04</dc:date>
        <dc:description>This woman is a slightly stereotypical &quot;housewife&quot; but the image is quite symbolic. It's saying that her husband put her up on a pedestal. That's never a good idea. Just in case you want it, I also have a husband on a pedestal image in my collection. Like I said don that one, it goes both ways!</dc:description>
        <dc:source>https://openclipart.org/detail/175521/wife-on-a-pedestal-by-j4p4n-175521</dc:source>
        <dc:creator>
          <cc:Agent>
            <dc:title>j4p4n</dc:title>
          </cc:Agent>
        </dc:creator>
        <dc:subject>
          <rdf:Bag>
            <rdf:li>broom</rdf:li>
            <rdf:li>chores</rdf:li>
            <rdf:li>clouds</rdf:li>
            <rdf:li>duster</rdf:li>
            <rdf:li>housewife</rdf:li>
            <rdf:li>husband</rdf:li>
            <rdf:li>pedestal</rdf:li>
            <rdf:li>symbolic</rdf:li>
            <rdf:li>wife</rdf:li>
          </rdf:Bag>
        </dc:subject>
      </cc:Work>
      <cc:License
         rdf:about="http://creativecommons.org/licenses/publicdomain/">
        <cc:permits
           rdf:resource="http://creativecommons.org/ns#Reproduction" />
        <cc:permits
           rdf:resource="http://creativecommons.org/ns#Distribution" />
        <cc:permits
           rdf:resource="http://creativecommons.org/ns#DerivativeWorks" />
      </cc:License>
    </rdf:RDF>
  </metadata>
  <rect
     style="fill:none;stroke:none"
     id="rect3060"
     width="214.91785"
     height="446.04459"
     x="-1.539111e-05"
     y="5.6843419e-14" />
</svg>
