<?xml version="1.0" encoding="UTF-8" standalone="no"?>
<!-- Created with Inkscape (http://www.inkscape.org/) -->

<svg
   xmlns:dc="http://purl.org/dc/elements/1.1/"
   xmlns:cc="http://creativecommons.org/ns#"
   xmlns:rdf="http://www.w3.org/1999/02/22-rdf-syntax-ns#"
   xmlns:svg="http://www.w3.org/2000/svg"
   xmlns="http://www.w3.org/2000/svg"
   xmlns:sodipodi="http://sodipodi.sourceforge.net/DTD/sodipodi-0.dtd"
   xmlns:inkscape="http://www.inkscape.org/namespaces/inkscape"
   id="svg5205"
   sodipodi:docname="jubilee_crown_blue.svg"
   inkscape:export-filename="C:\Users\jparagreen\SkyDrive\Jubilee invites\jubilee crown blue.png"
   viewBox="0 0 320 200"
   inkscape:export-xdpi="300"
   version="1.1"
   inkscape:export-ydpi="300"
   inkscape:version="0.48.4 r9939"
   width="100%"
   height="100%">
  <defs
     id="defs3184" />
  <sodipodi:namedview
     id="base"
     bordercolor="#666666"
     inkscape:pageshadow="2"
     inkscape:window-y="441"
     fit-margin-left="0"
     pagecolor="#ffffff"
     fit-margin-top="0"
     inkscape:window-maximized="0"
     inkscape:zoom="0.35"
     inkscape:window-x="859"
     inkscape:window-height="406"
     showgrid="false"
     borderopacity="1.0"
     inkscape:current-layer="layer1"
     inkscape:cx="403.57143"
     inkscape:cy="-82.857143"
     fit-margin-right="0"
     fit-margin-bottom="0"
     inkscape:window-width="533"
     inkscape:pageopacity="0.0"
     inkscape:document-units="px" />
  <g
     id="layer1"
     inkscape:label="Layer 1"
     inkscape:groupmode="layer"
     transform="translate(28.571 -249.51)">
    <path
       id="imagebot_4"
       style="fill:#000000"
       inkscape:connector-curvature="0"
       d="m121.38 249.51v2.1354l7.5211 9.0705v3.4871l-12.078-5.6225h-2.2782v14.771h2.2782l12.078-4.9564v8.4239c-8.3337 0.87101-14.74 5.9954-14.74 12.185 0 6.8009 7.7091 12.322 17.238 12.322s17.265-5.5216 17.265-12.322c0-5.9913-5.9995-10.966-13.944-12.068v-7.9537l12.023 4.9368h2.1411v-13.988h-2.1411l-12.023 5.5833v-4.7997l7.521-9.0705v-2.1354h-20.861zm7.5211 30.385v7.3465c-3.2878-0.40947-6.2872-1.4107-8.8112-2.821 1.8461-2.314 5.0309-4.0014 8.8112-4.5254zm5.8192 0.13713c3.7891 0.71447 6.9023 2.6141 8.5091 5.1131-2.495 1.1627-5.4022 1.913-8.5091 2.1745v-7.2877zm-35.629 11.46c-4.3313 0-7.8504 2.5116-7.8504 5.6029s3.5191 5.5833 7.8504 5.5833c4.3314 0 7.8504-2.492 7.8504-5.5833s-3.519-5.6029-7.8504-5.6029zm64.642 0c-4.3312 0-7.8503 2.5116-7.8503 5.6029s3.5191 5.5833 7.8503 5.5833c4.3313 0 7.8504-2.492 7.8504-5.5833s-3.5191-5.6029-7.8504-5.6029zm-35.464 1.3126c4.5584 0 8.7465 1.099 12.105 2.9386-2.3347 1.584-5.5001 2.5468-8.9758 2.5468-4.6351 0-8.7003-1.726-11.007-4.3295 2.4141-0.74165 5.084-1.1558 7.878-1.1558zm-49.875 2.488c-3.9848 0-7.2192 2.3083-7.2192 5.1523s3.2344 5.1524 7.2192 5.1524 7.2191-2.3084 7.2191-5.1524-3.2343-5.1523-7.2191-5.1523zm106.04 0c-3.9848 0-7.2192 2.3083-7.2192 5.1523s3.2344 5.1524 7.2192 5.1524 7.219-2.3084 7.219-5.1524-3.2342-5.1523-7.219-5.1523zm-124.87 6.3865c-3.5517 0-6.4231 2.0493-6.4231 4.5842s2.8714 4.6038 6.4231 4.6038c3.5518 0 6.4232-2.0689 6.4232-4.6038s-2.8714-4.5842-6.4232-4.5842zm143.7 0c-3.5517 0-6.423 2.0493-6.423 4.5842s2.8713 4.6038 6.423 4.6038 6.4231-2.0689 6.4231-4.6038-2.8714-4.5842-6.4231-4.5842zm-93.985 1.8023-2.9096 0.31345c-24.627 2.6464-47.732 9.5621-66.097 16.848-18.365 7.2858-31.835 14.809-37.77 19.375l5.5996 3.7026c4.776-3.6747 18.128-11.265 35.903-18.317 17.027-6.7551 38.273-13.095 60.58-15.829 3.2659 5.2215 6.3629 10.041 9.5797 21.843h7.4936c-3.717-13.638-7.6258-20.157-11.227-26.016l-1.153-1.9199zm44.275 0-1.1528 1.9199c-3.6008 5.8589-7.5097 12.378-11.227 26.016h7.4936c3.2168-11.803 6.3138-16.622 9.5797-21.843 22.307 2.7342 43.553 9.0741 60.58 15.829 17.776 7.0519 31.127 14.642 35.903 18.317l5.5995-3.7026c-5.9341-4.5658-19.405-12.089-37.77-19.375-18.365-7.2858-41.47-14.201-66.097-16.848l-2.9096-0.31345zm-22.151 0.37225c-3.6383 0-6.5877 2.105-6.5877 4.7017s2.9494 4.7017 6.5877 4.7017c3.6384 0 6.5878-2.105 6.5878-4.7017s-2.9494-4.7017-6.5878-4.7017zm-88.468 3.7614c-3.2918 0-5.9564 1.9018-5.9564 4.2511 0 2.3494 2.6646 4.2512 5.9564 4.2512 3.2917 0 5.9839-1.9018 5.9839-4.2512s-2.6922-4.2511-5.9839-4.2511zm176.96 0c-3.2918 0-5.9838 1.9018-5.9838 4.2511 0 2.3494 2.692 4.2512 5.9838 4.2512s5.9565-1.9018 5.9565-4.2512-2.6647-4.2511-5.9565-4.2511zm-193.9 7.6011c-3.1186 0-5.6271 1.8099-5.6271 4.0356s2.5085 4.0357 5.6271 4.0357c3.1185 0 5.6545-1.8099 5.6545-4.0357 0-2.2257-2.536-4.0356-5.6545-4.0356zm210.84 0c-3.1186 0-5.6546 1.8099-5.6546 4.0356s2.536 4.0357 5.6546 4.0357 5.627-1.8099 5.627-4.0357c0-2.2257-2.5084-4.0356-5.627-4.0356zm-105.43 0.6269c-3.1186 0-5.6271 1.8099-5.6271 4.0356s2.5085 4.0161 5.6271 4.0161c3.1185 0 5.6545-1.7903 5.6545-4.0161 0-2.2257-2.536-4.0356-5.6545-4.0356zm-120.45 7.4444c-2.7722 0-5.0232 1.6066-5.0232 3.5851 0 1.9784 2.251 3.5851 5.0232 3.5851 2.772 0 5.0232-1.6066 5.0232-3.5851 0-1.9784-2.2512-3.5851-5.0232-3.5851zm240.92 0c-2.7722 0-5.0232 1.6066-5.0232 3.5851 0 1.9784 2.251 3.5851 5.0232 3.5851 2.772 0 5.0232-1.6066 5.0232-3.5851 0-1.9784-2.2512-3.5851-5.0232-3.5851zm-202.02 0.90116c-7.2567 8.0368-6.9565 18.381-2.5255 29.993-33.705-10.238-45.307 20.615-19.763 29.993-1.952-7.488-0.082-15.477 11.309-16.339 6.0921-0.46086 13.248 0.76903 14.109 8.7374 0.6054 5.6055-6.0511 18.99-26.982 18.807-13.079-0.11582-27.046-3.6121-33.241-18.572-2.3092-5.5764-2.2697-5.3043 5.4076-3.0365 3.0044 0.88753 6.8113 2.7294 13.093 6.602-0.4447-6.2642-4.6896-22.161-9.0856-26.859-5.8703 2.9619-6.4968 6.4526-17.567 8.7178 3.9336-5.4338 7.5826-10.979 13.176-17.005-11.652 0.62044-18.662 2.6144-26.351 3.8006 1.8032 5.337 3.6347 10.606 6.2584 14.771-5.7691 7.9824-0.9414 11.571 5.0232 15.457 2.4288 1.5826 13.396 24.611 7.8502 32.462-2.9235 4.1391-1.214 8.5651 2.8274 10.52 4.5213 2.1871 8.583 4.9972 12.27 7.895 4.721 3.7108 3.6229 4.094 9.415 1.8219 20.39-7.9987 64.848-13.498 116.36-13.498 51.508 0 95.966 5.4992 116.36 13.498 5.7921 2.2721 4.694 1.8889 9.415-1.8219 3.6866-2.8978 7.7483-5.7079 12.27-7.895 4.0416-1.955 5.7509-6.381 2.8274-10.52-5.5456-7.851 5.4214-30.879 7.8502-32.462 5.9646-3.8864 10.792-7.4746 5.0232-15.457 2.6237-4.1657 4.4552-9.4343 6.2584-14.771-7.689-1.1862-14.699-3.1801-26.351-3.8006 5.5929 6.0259 9.2419 11.571 13.176 17.005-11.071-2.2652-11.697-5.7559-17.567-8.7178-4.396 4.698-8.6409 20.594-9.0856 26.859 6.2818-3.8727 10.089-5.7145 13.093-6.602 7.6773-2.2678 7.7167-2.5399 5.4076 3.0365-6.1949 14.96-20.161 18.456-33.241 18.572-20.931 0.18271-27.588-13.201-26.982-18.807 0.8605-7.9684 8.0167-9.1983 14.109-8.7374 11.391 0.86169 13.261 8.8506 11.309 16.339 25.544-9.3783 13.942-40.231-19.763-29.993 4.431-11.612 4.7312-21.956-2.5255-29.993-8.7729 6.2925-19.054 11.622-15.673 28.641-6.3464-3.2487-11.87-6.5194-17.567-5.5833-7.681 1.262-14.671 3.488-16.003 12.087-0.9299 6.0046 3.9085 11.731 10.348 15.437 0.8584-5.8923 2.3853-11.029 11.611-11.186 10.593-0.18067 12.56 6.0636 12.242 10.971-0.4408 6.7952-13.321 14.768-29.81 13.89-16.528-0.88067-30.852-10.935-30.606-23.117 5.2322 0.89591 11.815 4.7776 14.85 6.6412 0.5844 0.35891 2.6258 0.33207 3.2116 0.35265v-25.468c-0.7676 0.0116-2.3426-0.14452-3.2664 0.25469-4.7408 2.0476-10.375 8.548-13.67 7.9734 2.5596-7.4662 9.5515-16.445 9.7169-19.493h-33.927c0.1649 3.0477 7.1573 12.026 9.7169 19.493-3.2947 0.57464-8.9288-5.9258-13.67-7.9734-0.9238-0.39908-2.4988-0.24249-3.2664-0.25469v25.468c0.5858-0.0206 2.6272 0.006 3.2116-0.35265 3.0345-1.8635 9.6177-5.7452 14.85-6.6412 0.2464 12.182-14.078 22.236-30.606 23.117-16.489 0.8786-29.369-7.0945-29.81-13.89-0.3184-4.9072 1.6488-11.151 12.242-10.971 9.2256 0.1574 10.752 5.2939 11.611 11.186 6.4398-3.7066 11.278-9.4327 10.348-15.437-1.3318-8.5994-8.3217-10.825-16.003-12.087-5.6971-0.93607-11.221 2.3346-17.567 5.5833 3.3812-17.019-6.9003-22.349-15.673-28.641zm81.551 2.2921c-2.2522 0-4.0624 1.2919-4.0624 2.8994s1.8102 2.919 4.0624 2.919c2.2523 0 4.0899-1.3115 4.0899-2.919s-1.8376-2.8994-4.0899-2.8994zm-132.69 5.309c-2.2523 0-4.0899 1.3115-4.0899 2.919s1.8376 2.8994 4.0899 2.8994 4.0898-1.2919 4.0898-2.8994-1.8375-2.919-4.0898-2.919zm265.4 0c-2.2523 0-4.0899 1.3115-4.0899 2.919s1.8376 2.8994 4.0899 2.8994 4.0899-1.2919 4.0899-2.8994-1.8376-2.919-4.0899-2.919zm-132.72 25.35c1.9059 0 3.4587 1.1082 3.4587 2.4684s-1.5528 2.4684-3.4587 2.4684c-1.9058 0-3.4311-1.1082-3.4311-2.4684s1.5253-2.4684 3.4311-2.4684zm-150.45 9.6386c1.3912-0.0204 3.0699 1.5988 3.8702 3.781 0.854 2.3277 0.3666 4.4234-1.0704 4.6822-1.4371 0.25875-3.291-1.4141-4.1448-3.7418-0.8539-2.3277-0.3665-4.4234 1.0704-4.6822 0.09-0.0164 0.1821-0.0376 0.2746-0.0391zm300.95 0c0.093 0.001 0.1846 0.0231 0.2746 0.0391 1.4369 0.25876 1.9243 2.3544 1.0704 4.6822-0.8538 2.3277-2.7077 4.0006-4.1448 3.7418-1.437-0.25874-1.9244-2.3544-1.0704-4.6821 0.8003-2.1822 2.479-3.8014 3.8702-3.781zm-150.5 24.292 8.0976 9.2272-8.0976 9.2467-8.0975-9.2467 8.0975-9.2272zm-33.57 3.1933c2.2523 0 4.0899 1.2919 4.0899 2.8994 0 1.6074-1.8376 2.919-4.0899 2.919-2.2522 0-4.0624-1.3115-4.0624-2.919s1.8102-2.8994 4.0624-2.8994zm67.195 0c2.2522 0 4.0624 1.2919 4.0624 2.8994 0 1.6074-1.8102 2.919-4.0624 2.919-2.2523 0-4.0899-1.3115-4.0899-2.919s1.8376-2.8994 4.0899-2.8994zm-98.185 0.6073c8.3424 0.11698 15.155 3.2644 15.948 7.7187 0.9059 5.0907-6.4066 9.9534-16.332 10.853-9.9256 0.89983-18.693-2.5105-19.598-7.6011-0.9061-5.0907 6.4065-9.9338 16.332-10.834 1.2407-0.11248 2.4589-0.15371 3.6507-0.13713zm129.17 0c1.1918-0.0164 2.41 0.0246 3.6507 0.13713 9.9256 0.89981 17.238 5.7429 16.332 10.834-0.9059 5.0907-9.6729 8.501-19.598 7.6012-9.9256-0.8998-17.238-5.7625-16.332-10.853 0.7928-4.4543 7.6055-7.6016 15.948-7.7187zm-169.85 8.228c2.2521 0 4.0897 1.3115 4.0897 2.919s-1.8376 2.8994-4.0897 2.8994c-2.2523 0-4.0899-1.2919-4.0899-2.8994s1.8376-2.919 4.0899-2.919zm210.53 0c2.2523 0 4.0899 1.3115 4.0899 2.919s-1.8376 2.8994-4.0899 2.8994c-2.2521 0-4.0897-1.2919-4.0897-2.8994s1.8376-2.919 4.0897-2.919zm-136.67 3.252c2.2523 0 4.0899 1.2919 4.0899 2.8994s-1.8376 2.919-4.0899 2.919-4.0624-1.3115-4.0624-2.919 1.8101-2.8994 4.0624-2.8994zm62.803 0c2.2523 0 4.0624 1.2919 4.0624 2.8994s-1.8101 2.919-4.0624 2.919-4.0899-1.3115-4.0899-2.919 1.8376-2.8994 4.0899-2.8994zm-164.36 2.9778 8.7013 5.0544-2.5253 7.8167-8.7288-5.074 2.5528-7.797zm265.93 0 2.5528 7.797-8.7288 5.074-2.5253-7.8167 8.7013-5.0544zm-235.24 5.5246c2.2523 0 4.0626 1.3115 4.0626 2.919s-1.8103 2.8994-4.0626 2.8994c-2.2521 0-4.0899-1.2919-4.0899-2.8994 0-1.6074 1.8378-2.919 4.0899-2.919zm204.55 0c2.2523 0 4.0899 1.3115 4.0899 2.919s-1.8376 2.8994-4.0899 2.8994-4.0626-1.2919-4.0626-2.8994c0-1.6074 1.8103-2.919 4.0626-2.919zm-102.27 7.0134c-63.584 0-115.12 9.2843-115.12 14.556 0 4.8242 51.537 13.086 115.12 13.086 63.584 0 115.12-8.2623 115.12-13.086 0-5.2715-51.537-14.556-115.12-14.556z" />
  </g>
  <metadata
     id="metadata3182">
    <rdf:RDF>
      <cc:Work>
        <dc:format>image/svg+xml</dc:format>
        <dc:type
           rdf:resource="http://purl.org/dc/dcmitype/StillImage" />
        <cc:license
           rdf:resource="http://creativecommons.org/licenses/publicdomain/" />
        <dc:publisher>
          <cc:Agent
             rdf:about="http://openclipart.org/">
            <dc:title>Openclipart</dc:title>
          </cc:Agent>
        </dc:publisher>
        <dc:title></dc:title>
        <dc:date>2012-05-15T05:04:01</dc:date>
        <dc:description />
        <dc:source>https://openclipart.org/detail/170034/jubilee-crown-blue-by-mr_johnnyp</dc:source>
        <dc:creator>
          <cc:Agent>
            <dc:title>mr_johnnyp</dc:title>
          </cc:Agent>
        </dc:creator>
        <dc:subject>
          <rdf:Bag>
            <rdf:li>Jubilee</rdf:li>
            <rdf:li>blue</rdf:li>
            <rdf:li>crown</rdf:li>
          </rdf:Bag>
        </dc:subject>
      </cc:Work>
      <cc:License
         rdf:about="http://creativecommons.org/licenses/publicdomain/">
        <cc:permits
           rdf:resource="http://creativecommons.org/ns#Reproduction" />
        <cc:permits
           rdf:resource="http://creativecommons.org/ns#Distribution" />
        <cc:permits
           rdf:resource="http://creativecommons.org/ns#DerivativeWorks" />
      </cc:License>
    </rdf:RDF>
  </metadata>
</svg>
