<?xml version="1.0" encoding="UTF-8" standalone="no"?>
<!-- Created with Inkscape (http://www.inkscape.org/) -->

<svg
   xmlns:dc="http://purl.org/dc/elements/1.1/"
   xmlns:cc="http://creativecommons.org/ns#"
   xmlns:rdf="http://www.w3.org/1999/02/22-rdf-syntax-ns#"
   xmlns:svg="http://www.w3.org/2000/svg"
   xmlns="http://www.w3.org/2000/svg"
   xmlns:xlink="http://www.w3.org/1999/xlink"
   xmlns:sodipodi="http://sodipodi.sourceforge.net/DTD/sodipodi-0.dtd"
   xmlns:inkscape="http://www.inkscape.org/namespaces/inkscape"
   id="svg2985"
   viewBox="0 0 591.53087 873.84597"
   sodipodi:docname="circassian_dagger.svg"
   version="1.1"
   inkscape:version="0.48.4 r9939"
   width="100%"
   height="100%">
  <defs
     id="defs2987">
    <filter
       id="filter3830"
       height="1.5543"
       width="1.0385"
       color-interpolation-filters="sRGB"
       y="-0.27715001"
       x="-0.01925"
       inkscape:collect="always">
      <feGaussianBlur
         id="feGaussianBlur3832"
         stdDeviation="3.7965437"
         inkscape:collect="always" />
    </filter>
    <filter
       id="filter3870"
       height="1.5498"
       width="1.0251"
       color-interpolation-filters="sRGB"
       y="-0.27491999"
       x="-0.012548"
       inkscape:collect="always">
      <feGaussianBlur
         id="feGaussianBlur3872"
         stdDeviation="2.4746638"
         inkscape:collect="always" />
    </filter>
    <filter
       id="filter4037"
       height="1.6494"
       width="1.0518"
       color-interpolation-filters="sRGB"
       y="-0.32468"
       x="-0.025916001"
       inkscape:collect="always">
      <feGaussianBlur
         id="feGaussianBlur4039"
         stdDeviation="6.6034375"
         inkscape:collect="always" />
    </filter>
    <filter
       id="filter4184"
       height="1.5839"
       width="1.0523"
       color-interpolation-filters="sRGB"
       y="-0.29196"
       x="-0.026149999"
       inkscape:collect="always">
      <feGaussianBlur
         id="feGaussianBlur4186"
         stdDeviation="9.9648691"
         inkscape:collect="always" />
    </filter>
    <linearGradient
       id="linearGradient4242"
       y2="328.20001"
       gradientUnits="userSpaceOnUse"
       y1="316.10999"
       x2="747.34998"
       x1="747.34998"
       inkscape:collect="always">
      <stop
         id="stop3912"
         style="stop-color:#e6e6e6"
         offset="0" />
      <stop
         id="stop3914"
         style="stop-color:#e6e6e6;stop-opacity:0"
         offset="1" />
    </linearGradient>
    <linearGradient
       id="linearGradient4273"
       y2="314.53"
       gradientUnits="userSpaceOnUse"
       x2="806.45001"
       gradientTransform="translate(-12.668,-14.971)"
       y1="256.37"
       x1="814.78998"
       inkscape:collect="always">
      <stop
         id="stop3973"
         style="stop-color:#ececec"
         offset="0" />
      <stop
         id="stop3975"
         style="stop-color:#ececec;stop-opacity:0"
         offset="1" />
    </linearGradient>
    <linearGradient
       id="linearGradient4277"
       y2="326.91"
       gradientUnits="userSpaceOnUse"
       x2="814.51001"
       gradientTransform="translate(-12.668,-14.971)"
       y1="354.26001"
       x1="813.92999"
       inkscape:collect="always">
      <stop
         id="stop3892"
         style="stop-color:#000000"
         offset="0" />
      <stop
         id="stop3894"
         style="stop-color:#000000;stop-opacity:0"
         offset="1" />
    </linearGradient>
    <linearGradient
       id="linearGradient4280"
       y2="375.20999"
       gradientUnits="userSpaceOnUse"
       x2="363.35001"
       y1="301.5"
       x1="358.16"
       inkscape:collect="always">
      <stop
         id="stop3030"
         style="stop-color:#cccccc"
         offset="0" />
      <stop
         id="stop3816"
         style="stop-color:#787878"
         offset=".5" />
      <stop
         id="stop3032"
         style="stop-color:#cccccc"
         offset="1" />
    </linearGradient>
    <linearGradient
       id="linearGradient4302"
       y2="200.11"
       gradientUnits="userSpaceOnUse"
       x2="799.67999"
       y1="150.44"
       x1="798.87"
       inkscape:collect="always">
      <stop
         id="stop4298"
         style="stop-color:#ffffff"
         offset="0" />
      <stop
         id="stop4300"
         style="stop-color:#ffffff;stop-opacity:0"
         offset="1" />
    </linearGradient>
    <linearGradient
       id="linearGradient4338"
       y2="305.16"
       gradientUnits="userSpaceOnUse"
       x2="793.37"
       gradientTransform="matrix(0.97454,0,0,1,19.631,0)"
       y1="281.75"
       x1="793.37"
       inkscape:collect="always">
      <stop
         id="stop4334"
         style="stop-color:#f2f2f2"
         offset="0" />
      <stop
         id="stop4336"
         style="stop-color:#f2f2f2;stop-opacity:0"
         offset="1" />
    </linearGradient>
    <linearGradient
       id="linearGradient3077"
       y2="328.20001"
       xlink:href="#linearGradient4242"
       gradientUnits="userSpaceOnUse"
       x2="747.34998"
       y1="316.10999"
       x1="747.34998"
       inkscape:collect="always" />
    <linearGradient
       inkscape:collect="always"
       xlink:href="#linearGradient4242"
       id="linearGradient3331"
       gradientUnits="userSpaceOnUse"
       x1="747.34998"
       y1="316.10999"
       x2="747.34998"
       y2="328.20001" />
    <linearGradient
       inkscape:collect="always"
       xlink:href="#linearGradient4242"
       id="linearGradient3333"
       gradientUnits="userSpaceOnUse"
       x1="747.34998"
       y1="316.10999"
       x2="747.34998"
       y2="328.20001" />
    <linearGradient
       inkscape:collect="always"
       xlink:href="#linearGradient4242"
       id="linearGradient3335"
       gradientUnits="userSpaceOnUse"
       x1="747.34998"
       y1="316.10999"
       x2="747.34998"
       y2="328.20001" />
    <linearGradient
       inkscape:collect="always"
       xlink:href="#linearGradient4242"
       id="linearGradient3337"
       gradientUnits="userSpaceOnUse"
       x1="747.34998"
       y1="316.10999"
       x2="747.34998"
       y2="328.20001" />
    <linearGradient
       inkscape:collect="always"
       xlink:href="#linearGradient4242"
       id="linearGradient3339"
       gradientUnits="userSpaceOnUse"
       x1="747.34998"
       y1="316.10999"
       x2="747.34998"
       y2="328.20001" />
    <linearGradient
       inkscape:collect="always"
       xlink:href="#linearGradient4242"
       id="linearGradient3341"
       gradientUnits="userSpaceOnUse"
       x1="747.34998"
       y1="316.10999"
       x2="747.34998"
       y2="328.20001" />
  </defs>
  <sodipodi:namedview
     id="namedview2989"
     bordercolor="#666666"
     inkscape:pageshadow="2"
     inkscape:window-y="27"
     pagecolor="#ffffff"
     inkscape:window-maximized="0"
     inkscape:zoom="0.86831672"
     inkscape:window-x="0"
     inkscape:window-height="1077"
     showgrid="false"
     borderopacity="1.0"
     inkscape:current-layer="layer1"
     inkscape:cx="268.59294"
     inkscape:cy="444.25646"
     inkscape:window-width="1540"
     inkscape:pageopacity="0.0"
     inkscape:document-units="mm"
     units="mm"
     fit-margin-top="0"
     fit-margin-left="0"
     fit-margin-right="0"
     fit-margin-bottom="0" />
  <g
     id="layer1"
     inkscape:label="Layer 1"
     inkscape:groupmode="layer"
     transform="translate(-179.37455,86.408729)">
    <g
       id="g4342"
       transform="matrix(-0.55288423,-0.83325808,0.83325808,-0.55288423,476.32887,989.72653)">
      <g
         id="g4110"
         style="fill:#808080;filter:url(#filter4184)">
        <g
           id="g4112"
           style="fill:#808080">
          <g
             id="g4114"
             style="fill:#808080">
            <path
               id="path4116"
               inkscape:connector-curvature="0"
               sodipodi:nodetypes="cc"
               style="fill:#808080"
               d="m 65.644,338.14 c -26.125333,35.04 -13.062667,17.52 0,0 z" />
            <path
               id="path4118"
               d="m 65.644,338.14 c -26.125333,35.04 -13.062667,17.52 0,0 z"
               sodipodi:nodetypes="cc"
               style="fill:#808080"
               inkscape:connector-curvature="0" />
            <path
               id="path4120"
               d="m 204.42,335.83 c 134.69,-21.945 311.81,-17.094 472.75,-22.457 l 0.57582,27.064 c -166.36,0.47548 -394.54,15.441 -473.33,-4.6066 z"
               sodipodi:nodetypes="cccc"
               style="fill:#808080;filter:url(#filter3830)"
               inkscape:connector-curvature="0" />
            <path
               id="path4122"
               inkscape:connector-curvature="0"
               sodipodi:nodetypes="cccc"
               style="fill:#808080;filter:url(#filter3870)"
               d="m 209.03,335.04 c 134.69,-14.42 311.81,-11.232 472.75,-14.757 l 0.57582,17.784 c -166.36,0.32 -394.54,10.16 -473.33,-3.02 z" />
          </g>
        </g>
        <path
           id="path4124"
           style="opacity:0.86884999;fill:#808080;filter:url(#filter4037)"
           inkscape:connector-curvature="0"
           d="M 677.19,289.19 C 478.48,292.9 283.87,286.2 66.22,338 l 55.84,-0.44 c 232.71,-42.44 375.11,-25.48 555.69,-33.62 l -0.56,-14.75 z" />
        <g
           id="g4126"
           style="fill:#808080">
          <path
             id="path4128"
             d="m 957.03188,460.79272 c -620.38392,-46.72848 -310.19196,-23.36424 0,0 z"
             sodipodi:nodetypes="cc"
             style="fill:#808080"
             inkscape:connector-curvature="0" />
          <path
             id="path4132"
             style="fill:#808080"
             inkscape:connector-curvature="0"
             d="m 922.72,284.88 c -7.19,0.01 -14.6,0.59 -22.13,1.43 -1.61,18.4 -17.17,15.9 -30.53,16.69 l -118.03,1.16 c -23.96,6.04 -29.05,-5.19 -35.12,-15.54 h -1.03 c 4.13,14.46 8.37,28.44 33.84,28.22 l 148,-2.9 c 21.33,-7.22 25.05,-17.71 25.47,-29.06 -0.16,-0.01 -0.31,-0.01 -0.47,0 z" />
          <path
             id="path4134"
             style="fill:#808080"
             inkscape:connector-curvature="0"
             d="m 922.72,284.88 c -7.19,0.01 -14.6,0.59 -22.13,1.43 -1.61,18.4 -17.17,15.9 -30.53,16.69 l -118.03,1.16 c -23.96,6.04 -29.05,-5.19 -35.12,-15.54 h -1.03 c 4.13,14.46 8.37,28.44 33.84,28.22 l 148,-2.9 c 21.33,-7.22 25.05,-17.71 25.47,-29.06 -0.16,-0.01 -0.31,-0.01 -0.47,0 z" />
          <g
             id="g4136"
             style="fill:#808080"
             transform="translate(-45.778,18.426)">
            <path
               style="opacity:0.59016;fill:#808080"
               d="m 753.18139,326.90799 c 0,2.86218 -2.51361,5.18244 -5.61431,5.18244 -3.1007,0 -5.61431,-2.32026 -5.61431,-5.18244 0,-2.86218 2.51361,-5.18244 5.61431,-5.18244 3.1007,0 5.61431,2.32026 5.61431,5.18244 z"
               id="path4138"
               inkscape:connector-curvature="0" />
            <path
               transform="matrix(0.66667,0,0,0.66667,249.19,108.97)"
               style="opacity:0.59016;fill:#808080"
               d="m 753.18139,326.90799 c 0,2.86218 -2.51361,5.18244 -5.61431,5.18244 -3.1007,0 -5.61431,-2.32026 -5.61431,-5.18244 0,-2.86218 2.51361,-5.18244 5.61431,-5.18244 3.1007,0 5.61431,2.32026 5.61431,5.18244 z"
               id="path4140"
               inkscape:connector-curvature="0" />
          </g>
          <g
             id="g4142"
             style="fill:#808080"
             transform="translate(78.6,0.86374)">
            <path
               style="opacity:0.59016;fill:#808080"
               d="m 753.18139,326.90799 c 0,2.86218 -2.51361,5.18244 -5.61431,5.18244 -3.1007,0 -5.61431,-2.32026 -5.61431,-5.18244 0,-2.86218 2.51361,-5.18244 5.61431,-5.18244 3.1007,0 5.61431,2.32026 5.61431,5.18244 z"
               id="path4144"
               inkscape:connector-curvature="0" />
            <path
               transform="matrix(0.66667,0,0,0.66667,249.19,108.97)"
               style="opacity:0.59016;fill:#808080"
               d="m 753.18139,326.90799 c 0,2.86218 -2.51361,5.18244 -5.61431,5.18244 -3.1007,0 -5.61431,-2.32026 -5.61431,-5.18244 0,-2.86218 2.51361,-5.18244 5.61431,-5.18244 3.1007,0 5.61431,2.32026 5.61431,5.18244 z"
               id="path4146"
               inkscape:connector-curvature="0" />
          </g>
          <g
             id="g4148"
             style="fill:#808080"
             transform="translate(187.72,-3.455)">
            <path
               style="opacity:0.59016;fill:#808080"
               d="m 753.18139,326.90799 c 0,2.86218 -2.51361,5.18244 -5.61431,5.18244 -3.1007,0 -5.61431,-2.32026 -5.61431,-5.18244 0,-2.86218 2.51361,-5.18244 5.61431,-5.18244 3.1007,0 5.61431,2.32026 5.61431,5.18244 z"
               id="path4150"
               inkscape:connector-curvature="0" />
            <path
               transform="matrix(0.66667,0,0,0.66667,249.19,108.97)"
               style="opacity:0.59016;fill:#808080"
               d="m 753.18139,326.90799 c 0,2.86218 -2.51361,5.18244 -5.61431,5.18244 -3.1007,0 -5.61431,-2.32026 -5.61431,-5.18244 0,-2.86218 2.51361,-5.18244 5.61431,-5.18244 3.1007,0 5.61431,2.32026 5.61431,5.18244 z"
               id="path4152"
               inkscape:connector-curvature="0" />
          </g>
          <g
             id="g4154"
             style="fill:#808080"
             transform="translate(-46.354,-13.532)">
            <path
               style="opacity:0.59016;fill:#808080"
               d="m 753.18139,326.90799 c 0,2.86218 -2.51361,5.18244 -5.61431,5.18244 -3.1007,0 -5.61431,-2.32026 -5.61431,-5.18244 0,-2.86218 2.51361,-5.18244 5.61431,-5.18244 3.1007,0 5.61431,2.32026 5.61431,5.18244 z"
               id="path4156"
               inkscape:connector-curvature="0" />
            <path
               transform="matrix(0.66667,0,0,0.66667,249.19,108.97)"
               style="opacity:0.59016;fill:#808080"
               d="m 753.18139,326.90799 c 0,2.86218 -2.51361,5.18244 -5.61431,5.18244 -3.1007,0 -5.61431,-2.32026 -5.61431,-5.18244 0,-2.86218 2.51361,-5.18244 5.61431,-5.18244 3.1007,0 5.61431,2.32026 5.61431,5.18244 z"
               id="path4158"
               inkscape:connector-curvature="0" />
          </g>
          <g
             id="g4160"
             style="fill:#808080"
             transform="translate(16.699,2.8791)">
            <path
               style="opacity:0.59016;fill:#808080"
               d="m 753.18139,326.90799 c 0,2.86218 -2.51361,5.18244 -5.61431,5.18244 -3.1007,0 -5.61431,-2.32026 -5.61431,-5.18244 0,-2.86218 2.51361,-5.18244 5.61431,-5.18244 3.1007,0 5.61431,2.32026 5.61431,5.18244 z"
               id="path4162"
               inkscape:connector-curvature="0" />
            <path
               transform="matrix(0.66667,0,0,0.66667,249.19,108.97)"
               style="opacity:0.59016;fill:#808080"
               d="m 753.18139,326.90799 c 0,2.86218 -2.51361,5.18244 -5.61431,5.18244 -3.1007,0 -5.61431,-2.32026 -5.61431,-5.18244 0,-2.86218 2.51361,-5.18244 5.61431,-5.18244 3.1007,0 5.61431,2.32026 5.61431,5.18244 z"
               id="path4164"
               inkscape:connector-curvature="0" />
          </g>
          <g
             id="g4166"
             style="fill:#808080"
             transform="translate(138.77,-0.28791)">
            <path
               style="opacity:0.59016;fill:#808080"
               d="m 753.18139,326.90799 c 0,2.86218 -2.51361,5.18244 -5.61431,5.18244 -3.1007,0 -5.61431,-2.32026 -5.61431,-5.18244 0,-2.86218 2.51361,-5.18244 5.61431,-5.18244 3.1007,0 5.61431,2.32026 5.61431,5.18244 z"
               id="path4168"
               inkscape:connector-curvature="0" />
            <path
               transform="matrix(0.66667,0,0,0.66667,249.19,108.97)"
               style="opacity:0.59016;fill:#808080"
               d="m 753.18139,326.90799 c 0,2.86218 -2.51361,5.18244 -5.61431,5.18244 -3.1007,0 -5.61431,-2.32026 -5.61431,-5.18244 0,-2.86218 2.51361,-5.18244 5.61431,-5.18244 3.1007,0 5.61431,2.32026 5.61431,5.18244 z"
               id="path4170"
               inkscape:connector-curvature="0" />
          </g>
        </g>
      </g>
      <g
         id="g4041"
         transform="translate(-12.668,-14.971)">
        <path
           id="path3026"
           d="m 65.644,338.14 c 217.88,-51.949 412.65,-45.231 611.53,-48.945 l 2.8791,74.857 c -208.72,-0.53 -425.6,15.84 -614.41,-25.92 z"
           sodipodi:nodetypes="cccc"
           style="fill:#999999"
           inkscape:connector-curvature="0" />
        <path
           id="path3005"
           inkscape:connector-curvature="0"
           sodipodi:nodetypes="cccc"
           style="fill:url(#linearGradient4280)"
           d="m 65.644,338.14 c 217.88,-51.949 412.65,-45.231 611.53,-48.945 l 2.8791,74.857 c -208.72,-0.53 -425.6,15.84 -614.41,-25.92 z" />
        <path
           id="path3007"
           inkscape:connector-curvature="0"
           sodipodi:nodetypes="cccc"
           style="fill:#e6e6e6;filter:url(#filter3830)"
           d="m 204.42,335.83 c 134.69,-21.945 311.81,-17.094 472.75,-22.457 l 0.57582,27.064 c -166.36,0.47548 -394.54,15.441 -473.33,-4.6066 z" />
        <path
           id="path3022"
           d="m 209.03,335.04 c 134.69,-14.42 311.81,-11.232 472.75,-14.757 l 0.57582,17.784 c -166.36,0.32 -394.54,10.16 -473.33,-3.02 z"
           sodipodi:nodetypes="cccc"
           style="fill:#333333;filter:url(#filter3870)"
           inkscape:connector-curvature="0" />
      </g>
      <path
         id="path3979"
         style="opacity:0.86884999;fill:#ffffff;filter:url(#filter4037)"
         inkscape:connector-curvature="0"
         d="M 664.52,274.22 C 465.81,277.93 271.2,271.23 53.55,323.03 l 55.844,-0.4375 c 232.7,-42.44 375.11,-25.479 555.69,-33.625 l -0.5625,-14.75 z" />
      <path
         id="path3880"
         inkscape:connector-curvature="0"
         sodipodi:nodetypes="ccccccccccccc"
         style="fill:#28170b"
         d="m 663.93,273.64 3.455,76.009 38.58,1.1516 c 3.5312,-11.042 5.5737,-22.868 37.429,-19.002 l 119.2,-1.1516 c 17.115,-1.523 25.877,3.6366 27.64,14.396 l 43.76,-2.88 c 36.758,-12.74 43.665,-32.943 19.002,-61.038 -17.991,-12.509 -40.997,-12.481 -65.068,-9.7891 -1.6179,18.399 -17.162,15.909 -30.519,16.699 l -118.04,1.1516 c -23.96,6.0478 -29.049,-5.2018 -35.125,-15.547 z" />
      <path
         id="path3009"
         d="m 663.93,273.64 3.455,76.009 38.58,1.1516 c 3.5312,-11.042 5.5737,-22.868 37.429,-19.002 l 119.2,-1.1516 c 17.115,-1.523 25.877,3.6366 27.64,14.396 l 43.76,-2.88 c 36.758,-12.74 43.665,-32.943 19.002,-61.038 -17.991,-12.509 -40.997,-12.481 -65.068,-9.7891 -1.6179,18.399 -17.162,15.909 -30.519,16.699 l -118.04,1.1516 c -23.96,6.0478 -29.049,-5.2018 -35.125,-15.547 z"
         sodipodi:nodetypes="ccccccccccccc"
         style="fill:url(#linearGradient4277)"
         inkscape:connector-curvature="0" />
      <g
         id="g3918"
         transform="translate(-58.446,3.455)">
        <path
           style="opacity:0.59016;fill:#000000"
           d="m 753.18139,326.90799 c 0,2.86218 -2.51361,5.18244 -5.61431,5.18244 -3.1007,0 -5.61431,-2.32026 -5.61431,-5.18244 0,-2.86218 2.51361,-5.18244 5.61431,-5.18244 3.1007,0 5.61431,2.32026 5.61431,5.18244 z"
           id="path3013"
           inkscape:connector-curvature="0" />
        <path
           transform="matrix(0.66667,0,0,0.66667,249.19,108.97)"
           style="opacity:0.59016;fill:url(#linearGradient3331)"
           d="m 753.18139,326.90799 c 0,2.86218 -2.51361,5.18244 -5.61431,5.18244 -3.1007,0 -5.61431,-2.32026 -5.61431,-5.18244 0,-2.86218 2.51361,-5.18244 5.61431,-5.18244 3.1007,0 5.61431,2.32026 5.61431,5.18244 z"
           id="path3908"
           inkscape:connector-curvature="0" />
      </g>
      <g
         id="g3930"
         transform="translate(175.05,-18.426)">
        <path
           style="opacity:0.59016;fill:#000000"
           d="m 753.18139,326.90799 c 0,2.86218 -2.51361,5.18244 -5.61431,5.18244 -3.1007,0 -5.61431,-2.32026 -5.61431,-5.18244 0,-2.86218 2.51361,-5.18244 5.61431,-5.18244 3.1007,0 5.61431,2.32026 5.61431,5.18244 z"
           id="path3932"
           inkscape:connector-curvature="0" />
        <path
           transform="matrix(0.66667,0,0,0.66667,249.19,108.97)"
           style="opacity:0.59016;fill:url(#linearGradient3333)"
           d="m 753.18139,326.90799 c 0,2.86218 -2.51361,5.18244 -5.61431,5.18244 -3.1007,0 -5.61431,-2.32026 -5.61431,-5.18244 0,-2.86218 2.51361,-5.18244 5.61431,-5.18244 3.1007,0 5.61431,2.32026 5.61431,5.18244 z"
           id="path3934"
           inkscape:connector-curvature="0" />
      </g>
      <g
         id="g3940"
         transform="translate(-59.022,-28.503)">
        <path
           style="opacity:0.59016;fill:#000000"
           d="m 753.18139,326.90799 c 0,2.86218 -2.51361,5.18244 -5.61431,5.18244 -3.1007,0 -5.61431,-2.32026 -5.61431,-5.18244 0,-2.86218 2.51361,-5.18244 5.61431,-5.18244 3.1007,0 5.61431,2.32026 5.61431,5.18244 z"
           id="path3942"
           inkscape:connector-curvature="0" />
        <path
           transform="matrix(0.66667,0,0,0.66667,249.19,108.97)"
           style="opacity:0.59016;fill:url(#linearGradient3335)"
           d="m 753.18139,326.90799 c 0,2.86218 -2.51361,5.18244 -5.61431,5.18244 -3.1007,0 -5.61431,-2.32026 -5.61431,-5.18244 0,-2.86218 2.51361,-5.18244 5.61431,-5.18244 3.1007,0 5.61431,2.32026 5.61431,5.18244 z"
           id="path3944"
           inkscape:connector-curvature="0" />
      </g>
      <g
         id="g4310"
         transform="translate(-4.4337,116.71)">
        <path
           id="path4287"
           style="fill:#000000"
           inkscape:connector-curvature="0"
           d="m 886.47,167.41 c -6.0931,4.5528 -15.812,3.6679 -24.594,4.1875 l -118.04,1.15 c -11.259,2.8421 -18.358,1.8463 -23.344,-1.0625 l 0.78125,45.844 c 5.1835,-2.6644 13.278,-3.8032 26.594,-2.1875 l 119.19,-1.1562 c 9.8239,-0.87419 16.893,0.45693 21.469,3.7812 l -2.0625,-50.562 z" />
        <path
           id="path4294"
           style="opacity:0.69672002;fill:url(#linearGradient4302)"
           inkscape:connector-curvature="0"
           d="m 884.08,171.07 c -5.9307,3.9296 -15.39,3.1658 -23.938,3.6142 l -114.89,0.99796 c -10.959,2.453 -17.869,1.5936 -22.722,-0.91705 l 0.76042,39.568 c 5.0454,-2.2996 12.924,-3.2826 25.885,-1.888 l 116.01,-0.99796 c 9.5621,-0.75451 16.443,0.39437 20.896,3.2636 l -2.0075,-43.641 z" />
        <g
           id="g3922"
           transform="translate(61.453,-130.56)">
          <path
             style="opacity:0.59016;fill:#000000"
             d="m 753.18139,326.90799 c 0,2.86218 -2.51361,5.18244 -5.61431,5.18244 -3.1007,0 -5.61431,-2.32026 -5.61431,-5.18244 0,-2.86218 2.51361,-5.18244 5.61431,-5.18244 3.1007,0 5.61431,2.32026 5.61431,5.18244 z"
             id="path3924"
             inkscape:connector-curvature="0" />
          <path
             transform="matrix(0.66667,0,0,0.66667,249.19,108.97)"
             style="opacity:0.59016;fill:url(#linearGradient3337)"
             d="m 753.18139,326.90799 c 0,2.86218 -2.51361,5.18244 -5.61431,5.18244 -3.1007,0 -5.61431,-2.32026 -5.61431,-5.18244 0,-2.86218 2.51361,-5.18244 5.61431,-5.18244 3.1007,0 5.61431,2.32026 5.61431,5.18244 z"
             id="path3926"
             inkscape:connector-curvature="0" />
        </g>
        <g
           id="g3948"
           transform="translate(-0.44809,-128.54)">
          <path
             style="opacity:0.59016;fill:#000000"
             d="m 753.18139,326.90799 c 0,2.86218 -2.51361,5.18244 -5.61431,5.18244 -3.1007,0 -5.61431,-2.32026 -5.61431,-5.18244 0,-2.86218 2.51361,-5.18244 5.61431,-5.18244 3.1007,0 5.61431,2.32026 5.61431,5.18244 z"
             id="path3950"
             inkscape:connector-curvature="0" />
          <path
             transform="matrix(0.66667,0,0,0.66667,249.19,108.97)"
             style="opacity:0.59016;fill:url(#linearGradient3339)"
             d="m 753.18139,326.90799 c 0,2.86218 -2.51361,5.18244 -5.61431,5.18244 -3.1007,0 -5.61431,-2.32026 -5.61431,-5.18244 0,-2.86218 2.51361,-5.18244 5.61431,-5.18244 3.1007,0 5.61431,2.32026 5.61431,5.18244 z"
             id="path3952"
             inkscape:connector-curvature="0" />
        </g>
        <g
           id="g3956"
           transform="translate(121.63,-131.71)">
          <path
             style="opacity:0.59016;fill:#000000"
             d="m 753.18139,326.90799 c 0,2.86218 -2.51361,5.18244 -5.61431,5.18244 -3.1007,0 -5.61431,-2.32026 -5.61431,-5.18244 0,-2.86218 2.51361,-5.18244 5.61431,-5.18244 3.1007,0 5.61431,2.32026 5.61431,5.18244 z"
             id="path3958"
             inkscape:connector-curvature="0" />
          <path
             transform="matrix(0.66667,0,0,0.66667,249.19,108.97)"
             style="opacity:0.59016;fill:url(#linearGradient3341)"
             d="m 753.18139,326.90799 c 0,2.86218 -2.51361,5.18244 -5.61431,5.18244 -3.1007,0 -5.61431,-2.32026 -5.61431,-5.18244 0,-2.86218 2.51361,-5.18244 5.61431,-5.18244 3.1007,0 5.61431,2.32026 5.61431,5.18244 z"
             id="path3960"
             inkscape:connector-curvature="0" />
        </g>
      </g>
      <path
         id="path3011"
         d="m 910.05,269.9 c -7.1937,0.0197 -14.603,0.59633 -22.125,1.4375 -1.6179,18.399 -17.174,15.897 -30.531,16.688 l -118.03,1.1562 c -23.96,6.0478 -29.049,-5.1857 -35.125,-15.531 h -1.0312 c 4.1358,14.453 8.3724,28.436 33.844,28.219 l 148,-2.9062 c 21.328,-7.2177 25.05,-17.71 25.469,-29.062 -0.15614,-1.1e-4 -0.3124,-4.3e-4 -0.46875,0 z"
         style="fill:#502d16"
         inkscape:connector-curvature="0" />
      <path
         id="path3898"
         style="fill:url(#linearGradient4273)"
         inkscape:connector-curvature="0"
         d="m 910.05,269.9 c -7.1937,0.0197 -14.603,0.59633 -22.125,1.4375 -1.6179,18.399 -17.174,15.897 -30.531,16.688 l -118.03,1.1562 c -23.96,6.0478 -29.049,-5.1857 -35.125,-15.531 h -1.0312 c 4.1358,14.453 8.3724,28.436 33.844,28.219 l 148,-2.9062 c 21.328,-7.2177 25.05,-17.71 25.469,-29.062 -0.15614,-1.1e-4 -0.3124,-4.3e-4 -0.46875,0 z" />
      <path
         id="path4323"
         style="fill:#000000"
         inkscape:connector-curvature="0"
         d="m 873.44,287.09 c -5.02,0.81 -10.69,0.63 -16.03,0.94 l -118.03,1.16 c -12.06,3.04 -19.35,1.7 -24.38,-1.69 l 1.5,9.53 c 4.68,3.09 11.19,4.93 20.56,4.85 L 882.91,299 873.44,287.09 z" />
      <path
         id="path4330"
         style="fill:url(#linearGradient4338)"
         inkscape:connector-curvature="0"
         d="m 870.83,287.09 c -4.8859,0.8108 -10.417,0.62139 -15.623,0.9375 l -115.03,1.1562 c -11.748,3.0429 -18.852,1.705 -23.754,-1.6875 l 1.4618,9.5312 c 4.5566,3.0841 10.901,4.9238 20.039,4.8438 l 142.13,-2.87 -9.23,-11.91 z" />
    </g>
  </g>
  <metadata
     id="metadata100">
    <rdf:RDF>
      <cc:Work>
        <dc:format>image/svg+xml</dc:format>
        <dc:type
           rdf:resource="http://purl.org/dc/dcmitype/StillImage" />
        <cc:license
           rdf:resource="http://creativecommons.org/licenses/publicdomain/" />
        <dc:publisher>
          <cc:Agent
             rdf:about="http://openclipart.org/">
            <dc:title>Openclipart</dc:title>
          </cc:Agent>
        </dc:publisher>
        <dc:title></dc:title>
      </cc:Work>
      <cc:License
         rdf:about="http://creativecommons.org/licenses/publicdomain/">
        <cc:permits
           rdf:resource="http://creativecommons.org/ns#Reproduction" />
        <cc:permits
           rdf:resource="http://creativecommons.org/ns#Distribution" />
        <cc:permits
           rdf:resource="http://creativecommons.org/ns#DerivativeWorks" />
      </cc:License>
    </rdf:RDF>
  </metadata>
</svg>
